<?xml version="1.0" encoding="UTF-8" standalone="no"?>
<svg
   xmlns:dc="http://purl.org/dc/elements/1.1/"
   xmlns:cc="http://creativecommons.org/ns#"
   xmlns:rdf="http://www.w3.org/1999/02/22-rdf-syntax-ns#"
   xmlns:svg="http://www.w3.org/2000/svg"
   xmlns="http://www.w3.org/2000/svg"
   xmlns:sodipodi="http://sodipodi.sourceforge.net/DTD/sodipodi-0.dtd"
   xmlns:inkscape="http://www.inkscape.org/namespaces/inkscape"
   id="Layer_1"
   data-name="Layer 1"
   viewBox="0 0 1142.37 737.01"
   version="1.1"
   sodipodi:docname="dl-21-01-2021-49.svg"
   inkscape:version="1.0 (4035a4f, 2020-05-01)">
  <metadata
     id="metadata31972">
    <rdf:RDF>
      <cc:Work
         rdf:about="">
        <dc:format>image/svg+xml</dc:format>
        <dc:type
           rdf:resource="http://purl.org/dc/dcmitype/StillImage" />
        <dc:title></dc:title>
      </cc:Work>
    </rdf:RDF>
  </metadata>
  <sodipodi:namedview
     inkscape:document-rotation="0"
     pagecolor="#ffffff"
     bordercolor="#666666"
     borderopacity="1"
     objecttolerance="10"
     gridtolerance="10"
     guidetolerance="10"
     inkscape:pageopacity="0"
     inkscape:pageshadow="2"
     inkscape:window-width="1080"
     inkscape:window-height="704"
     id="namedview1187"
     showgrid="false"
     inkscape:zoom="0.53182881"
     inkscape:cx="571.185"
     inkscape:cy="368.505"
     inkscape:window-x="0"
     inkscape:window-y="23"
     inkscape:window-maximized="0"
     inkscape:current-layer="Layer_1" />
  <defs
     id="defs1120">
    <style
       id="style1115">.cls-1,.cls-9{fill:none;}.cls-2{fill:#fff;}.cls-3{fill:#c0bee0;}.cls-4{fill:#fde7da;}.cls-5{fill:#009640;}.cls-6,.cls-7{font-size:18px;fill:#e74310;font-family:AmericanTypewriter-Light, American Typewriter;font-weight:300;}.cls-7{letter-spacing:-0.07em;}.cls-8{clip-path:url(#clip-path);}.cls-9{stroke:#1d1d1b;stroke-width:0.5px;}.cls-10{fill:#ededed;}</style>
  </defs>
  <polygon
     style="fill:#fde7da"
     class="cls-1"
     points="0,0 0,725.67 583.94,725.67 583.94,0 "
     id="polygon31900" />
  <text
     y="624.38"
     x="240.95"
     style="font-weight:300;font-size:8px;font-family:Agenda-Light, Agenda;fill:#1d1d1b"
     class="cls-2"
     id="text31902">A</text>
  <text
     y="624.38"
     x="247.66"
     style="font-weight:300;font-size:8px;font-family:Agenda-Light, Agenda;letter-spacing:-0.02em;fill:#1d1d1b"
     class="cls-3"
     id="text31904">fa</text>
  <text
     y="624.38"
     x="253.64"
     style="font-weight:300;font-size:8px;font-family:Agenda-Light, Agenda;fill:#1d1d1b"
     class="cls-2"
     id="text31906">mi</text>
  <text
     y="624.38"
     x="261.41"
     style="font-weight:300;font-size:8px;font-family:Agenda-Light, Agenda;letter-spacing:-0.01em;fill:#1d1d1b"
     class="cls-4"
     id="text31908">ly</text>
  <text
     y="624.38"
     x="266.72"
     style="font-weight:300;font-size:8px;font-family:Agenda-Light, Agenda;fill:#1d1d1b"
     class="cls-2"
     id="text31912"><tspan
       xml:space="preserve"
       id="tspan31910"> photobook </tspan></text>
  <text
     y="624.38"
     x="306.78"
     style="font-weight:300;font-size:8px;font-family:Agenda-Light, Agenda;letter-spacing:-0.02em;fill:#1d1d1b"
     class="cls-5"
     id="text31914">by</text>
  <path
     style="fill:#1d1d1b"
     class="cls-6"
     d="m 222.87,646.92 h -5 v -4.11 L 215.6,644 v 2.95 h -2.77 v 1.84 h 2.77 v 8.35 a 3.74,3.74 0 0 0 4.08,3.87 3.66,3.66 0 0 0 1.54,-0.28 l 0.21,-1.84 a 3.32,3.32 0 0 1 -1.35,0.25 2,2 0 0 1 -2.24,-2.21 v -8.14 h 4.61 l 0.42,-1.84 z m 14.8,13.91 v -9.27 c 0,-3.07 -2.24,-5 -5.31,-5 -2.3,0 -3.62,0.89 -4.21,2 v 0 -9.56 h -2.36 v 21.86 h 2.36 v -9.06 c 0,-1.69 1.32,-3.13 3.66,-3.13 2.34,0 3.53,1.44 3.53,3.13 v 9.06 z m 6.82,0 v -13.91 h -2.4 v 13.91 z m 12.89,-3.78 c 0,-2.3 -1.56,-3.56 -4.23,-4.51 -1.45,-0.52 -2.21,-1 -2.21,-2.12 0,-1.12 0.85,-1.78 2.15,-1.78 a 5,5 0 0 1 3,0.92 l 0.49,-1.93 a 7.4,7.4 0 0 0 -3.46,-0.89 c -2.55,0 -4.4,1.53 -4.4,3.77 0,2.24 1.48,3.38 4.09,4.3 1.44,0.52 2.3,1.2 2.3,2.33 0,1.13 -1.07,1.94 -2.52,1.94 a 6.52,6.52 0 0 1 -4.17,-1.6 l 0.3,2.46 a 6.61,6.61 0 0 0 3.84,1.07 c 3.07,0 4.82,-1.69 4.82,-4 z m 20.7,-0.43 c 0,-2.33 -1.29,-3.9 -4.43,-4.73 -0.85,-0.21 -1.22,-0.49 -1.22,-1 0,-0.51 0.49,-0.89 1.22,-0.89 a 6.38,6.38 0 0 1 2.89,0.77 l 0.77,-3.32 a 10.29,10.29 0 0 0 -4.11,-0.83 c -3,0 -5.22,1.75 -5.22,4.48 0,2.43 1.59,3.78 4.26,4.55 0.8,0.24 1.26,0.49 1.26,1.07 0,0.58 -0.52,1 -1.35,1 a 8,8 0 0 1 -4.36,-1.51 l 0.4,4 a 9.27,9.27 0 0 0 4.42,1 c 3.75,0 5.47,-2.14 5.47,-4.51 z m 12.95,-9.7 h -4.48 v -4.61 l -4.48,1.63 v 3 h -2.34 v 3.68 h 2.34 v 6 c 0,2.76 1.87,4.42 5,4.42 a 5,5 0 0 0 2.09,-0.37 l 0.4,-3.4 a 2.67,2.67 0 0 1 -1.17,0.18 c -1.19,0 -1.84,-0.49 -1.84,-1.69 v -5.16 h 3.62 z m 29,-0.06 a 4.32,4.32 0 0 0 -1.29,-0.19 4,4 0 0 0 -4,3.35 v 0 -3.1 h -4.45 v 13.91 h 4.52 v -6.48 c 0,-2.21 1.32,-3 2.76,-3 a 3.43,3.43 0 0 1 1.35,0.34 l 1.11,-4.85 z m 16.33,0.06 h -4.16 l -2,5.4 c -0.31,0.8 -0.62,1.78 -0.89,2.74 h -0.06 a 20.74,20.74 0 0 0 -0.83,-2.74 l -2,-5.4 H 322 l 5,13 a 8.68,8.68 0 0 1 -5.1,5.43 l 2.76,2.76 c 2.61,-1 4.82,-3 6.94,-8.62 l 4.73,-12.53 z"
     id="path31916" />
  <path
     style="fill:#fcbf00"
     class="cls-7"
     d="m 244.83,642.65 a 1.52,1.52 0 0 0 -3,0 1.52,1.52 0 1 0 3,0 z m 62.66,11.21 a 7.59,7.59 0 1 0 -7.58,7.4 7.3,7.3 0 0 0 7.58,-7.4 z"
     id="path31918" />
  <path
     clip-path="url(#clip-path)"
     style="fill:#e74310"
     class="cls-8"
     d="m 338.61,344.13 c 13.49,-21.78 10.75,-42.46 -7,-54.81 -17.75,-12.35 -33,-1.44 -40,3.23 v 0 c -7,-4.69 -23.19,-16.06 -40.33,-3.06 -17.14,13 -18.41,38.23 -7.18,54.8 11.23,16.57 47.25,46.71 47.25,46.71 0,0 33.94,-25.37 47.26,-46.87 z"
     id="path31920" />
</svg>
