<?xml version="1.0" encoding="UTF-8" standalone="no"?>
<svg
   xmlns:dc="http://purl.org/dc/elements/1.1/"
   xmlns:cc="http://creativecommons.org/ns#"
   xmlns:rdf="http://www.w3.org/1999/02/22-rdf-syntax-ns#"
   xmlns:svg="http://www.w3.org/2000/svg"
   xmlns="http://www.w3.org/2000/svg"
   xmlns:sodipodi="http://sodipodi.sourceforge.net/DTD/sodipodi-0.dtd"
   xmlns:inkscape="http://www.inkscape.org/namespaces/inkscape"
   id="Layer_1"
   data-name="Layer 1"
   viewBox="0 0 1142.37 737.01"
   version="1.1"
   sodipodi:docname="dl-21-01-2021-44.svg"
   inkscape:version="1.0 (4035a4f, 2020-05-01)">
  <metadata
     id="metadata5496">
    <rdf:RDF>
      <cc:Work
         rdf:about="">
        <dc:format>image/svg+xml</dc:format>
        <dc:type
           rdf:resource="http://purl.org/dc/dcmitype/StillImage" />
        <dc:title></dc:title>
      </cc:Work>
    </rdf:RDF>
  </metadata>
  <sodipodi:namedview
     inkscape:document-rotation="0"
     pagecolor="#ffffff"
     bordercolor="#666666"
     borderopacity="1"
     objecttolerance="10"
     gridtolerance="10"
     guidetolerance="10"
     inkscape:pageopacity="0"
     inkscape:pageshadow="2"
     inkscape:window-width="1080"
     inkscape:window-height="704"
     id="namedview1187"
     showgrid="false"
     inkscape:zoom="0.53182881"
     inkscape:cx="571.185"
     inkscape:cy="368.505"
     inkscape:window-x="0"
     inkscape:window-y="74"
     inkscape:window-maximized="0"
     inkscape:current-layer="Layer_1" />
  <defs
     id="defs1120">
    <style
       id="style1115">.cls-1,.cls-9{fill:none;}.cls-2{fill:#fff;}.cls-3{fill:#c0bee0;}.cls-4{fill:#fde7da;}.cls-5{fill:#009640;}.cls-6,.cls-7{font-size:18px;fill:#e74310;font-family:AmericanTypewriter-Light, American Typewriter;font-weight:300;}.cls-7{letter-spacing:-0.07em;}.cls-8{clip-path:url(#clip-path);}.cls-9{stroke:#1d1d1b;stroke-width:0.5px;}.cls-10{fill:#ededed;}</style>
  </defs>
  <polygon
     style="fill:#fde7da"
     class="cls-3"
     points="575.43,788.74 575.43,63.07 0,63.07 0,788.74 "
     id="polygon5349" />
  <path
     style="fill:#ffffff"
     class="cls-4"
     d="m 126.61,428.74 a 66.76,66.76 0 0 0 66.77,-66.76 66.76,66.76 0 0 0 -66.77,-66.77 66.76,66.76 0 0 0 -66.76,66.77 66.76,66.76 0 0 0 66.76,66.76 z"
     id="path5359" />
  <polygon
     style="fill:#dadada"
     class="cls-5"
     points="404.41,462.05 404.41,99.21 126.61,99.21 126.61,462.05 "
     id="polygon5361" />
  <polygon
     style="fill:#009640"
     class="cls-7"
     points="51.02,504.57 51.02,723.54 414.8,723.54 414.8,504.57 "
     id="polygon5417" />
  <polygon
     style="fill:#fde7da"
     class="cls-3"
     points="575.43,63.07 575.43,788.74 1150.87,788.74 1150.87,63.07 "
     id="polygon5353" />
  <path
     style="fill:#ffffff"
     class="cls-4"
     d="m 997.24,264.33 a 66.77,66.77 0 1 0 -66.77,-66.76 66.76,66.76 0 0 0 66.77,66.76 z"
     id="path5355" />
  <polygon
     style="fill:#dadada"
     class="cls-5"
     points="1019.06,462.05 1019.06,99.21 741.26,99.21 741.26,462.05 "
     id="polygon5357" />
  <polygon
     style="fill:#009640"
     class="cls-7"
     points="736.06,504.57 736.06,723.07 1099.84,723.07 1099.84,504.57 "
     id="polygon5367" />
</svg>
