<?xml version="1.0" encoding="UTF-8" standalone="no"?>
<svg
   xmlns:dc="http://purl.org/dc/elements/1.1/"
   xmlns:cc="http://creativecommons.org/ns#"
   xmlns:rdf="http://www.w3.org/1999/02/22-rdf-syntax-ns#"
   xmlns:svg="http://www.w3.org/2000/svg"
   xmlns="http://www.w3.org/2000/svg"
   xmlns:sodipodi="http://sodipodi.sourceforge.net/DTD/sodipodi-0.dtd"
   xmlns:inkscape="http://www.inkscape.org/namespaces/inkscape"
   id="Layer_1"
   data-name="Layer 1"
   viewBox="0 0 1142.37 737.01"
   version="1.1"
   sodipodi:docname="dl-21-01-2021-48.svg"
   inkscape:version="1.0 (4035a4f, 2020-05-01)">
  <metadata
     id="metadata23981">
    <rdf:RDF>
      <cc:Work
         rdf:about="">
        <dc:format>image/svg+xml</dc:format>
        <dc:type
           rdf:resource="http://purl.org/dc/dcmitype/StillImage" />
        <dc:title></dc:title>
      </cc:Work>
    </rdf:RDF>
  </metadata>
  <sodipodi:namedview
     inkscape:document-rotation="0"
     pagecolor="#ffffff"
     bordercolor="#666666"
     borderopacity="1"
     objecttolerance="10"
     gridtolerance="10"
     guidetolerance="10"
     inkscape:pageopacity="0"
     inkscape:pageshadow="2"
     inkscape:window-width="1080"
     inkscape:window-height="704"
     id="namedview1187"
     showgrid="false"
     inkscape:zoom="0.53182881"
     inkscape:cx="571.185"
     inkscape:cy="368.505"
     inkscape:window-x="2"
     inkscape:window-y="165"
     inkscape:window-maximized="0"
     inkscape:current-layer="Layer_1" />
  <defs
     id="defs1120">
    <style
       id="style1115">.cls-1,.cls-9{fill:none;}.cls-2{fill:#fff;}.cls-3{fill:#c0bee0;}.cls-4{fill:#fde7da;}.cls-5{fill:#009640;}.cls-6,.cls-7{font-size:18px;fill:#e74310;font-family:AmericanTypewriter-Light, American Typewriter;font-weight:300;}.cls-7{letter-spacing:-0.07em;}.cls-8{clip-path:url(#clip-path);}.cls-9{stroke:#1d1d1b;stroke-width:0.5px;}.cls-10{fill:#ededed;}</style>
    <clipPath
       id="clip-path"
       transform="translate(0.12 0)">
      <rect
         y="0"
         x="0"
         class="cls-1"
         width="1150.75"
         height="725.66998"
         id="rect23910" />
    </clipPath>
  </defs>
  <polygon
     style="fill:#ffffff"
     class="cls-4"
     points="575.43,8.5 575.43,717.16 1142.36,717.16 1142.36,8.5 "
     id="polygon23919" />
  <text
     y="624.38"
     x="853.19"
     style="font-weight:300;font-size:8px;font-family:Agenda-Light, Agenda;fill:#1d1d1b"
     class="cls-6"
     id="text23923">A</text>
  <text
     y="624.38"
     x="859.90002"
     style="font-weight:300;font-size:8px;font-family:Agenda-Light, Agenda;letter-spacing:-0.02em;fill:#1d1d1b"
     class="cls-7"
     id="text23925">fa</text>
  <text
     y="624.38"
     x="865.89001"
     style="font-weight:300;font-size:8px;font-family:Agenda-Light, Agenda;fill:#1d1d1b"
     class="cls-6"
     id="text23927">mi</text>
  <text
     clip-path="url(#clip-path)"
     y="624.38"
     x="873.65997"
     style="font-weight:300;font-size:8px;font-family:Agenda-Light, Agenda;letter-spacing:-0.01em;fill:#1d1d1b"
     class="cls-8"
     id="text23929">ly</text>
  <text
     y="624.38"
     x="878.96002"
     style="font-weight:300;font-size:8px;font-family:Agenda-Light, Agenda;fill:#1d1d1b"
     class="cls-6"
     id="text23933"><tspan
       xml:space="preserve"
       id="tspan23931"> book </tspan></text>
  <text
     y="624.38"
     x="899.27002"
     style="font-weight:300;font-size:8px;font-family:Agenda-Light, Agenda;letter-spacing:-0.02em;fill:#1d1d1b"
     class="cls-9"
     id="text23935">by</text>
  <path
     style="fill:#1d1d1b"
     class="cls-10"
     d="m 825.24,646.92 h -5 v -4.11 l -2.28,1.19 v 2.95 h -2.76 v 1.84 h 2.76 v 8.35 a 3.74,3.74 0 0 0 4.08,3.87 3.8,3.8 0 0 0 1.54,-0.27 l 0.21,-1.85 a 3.29,3.29 0 0 1 -1.35,0.25 c -1.38,0 -2.24,-0.58 -2.24,-2.21 v -8.14 h 4.61 l 0.43,-1.84 z m 14.79,13.91 v -9.27 c 0,-3.07 -2.24,-5 -5.31,-5 -2.3,0 -3.62,0.89 -4.2,2 v 0 -9.56 h -2.4 v 21.86 h 2.37 v -9.06 c 0,-1.69 1.32,-3.13 3.65,-3.13 2.33,0 3.53,1.44 3.53,3.13 v 9.06 z m 6.82,0 v -13.91 h -2.39 v 13.91 z m 12.89,-3.78 c 0,-2.3 -1.56,-3.56 -4.23,-4.51 -1.44,-0.52 -2.21,-1 -2.21,-2.12 0,-1.12 0.86,-1.78 2.15,-1.78 a 5,5 0 0 1 3,0.92 l 0.49,-1.93 a 7.45,7.45 0 0 0 -3.47,-0.89 c -2.55,0 -4.39,1.53 -4.39,3.77 0,2.24 1.47,3.38 4.08,4.3 1.44,0.52 2.3,1.2 2.3,2.33 0,1.13 -1.07,1.94 -2.51,1.94 a 6.53,6.53 0 0 1 -4.18,-1.6 l 0.31,2.46 a 6.58,6.58 0 0 0 3.84,1.06 c 3.08,0 4.82,-1.69 4.82,-4 z m 20.7,-0.43 c 0,-2.33 -1.29,-3.9 -4.42,-4.73 -0.86,-0.21 -1.23,-0.49 -1.23,-1 0,-0.51 0.49,-0.89 1.23,-0.89 a 6.37,6.37 0 0 1 2.88,0.77 l 0.77,-3.32 a 10.21,10.21 0 0 0 -4.11,-0.83 c -3,0 -5.22,1.75 -5.22,4.48 0,2.43 1.59,3.78 4.26,4.55 0.8,0.25 1.26,0.49 1.26,1.07 0,0.58 -0.52,1 -1.35,1 a 8,8 0 0 1 -4.36,-1.51 l 0.4,4 a 9.27,9.27 0 0 0 4.42,1 c 3.75,0 5.47,-2.15 5.47,-4.52 z m 13,-9.7 h -4.49 v -4.61 l -4.48,1.63 v 3 h -2.35 v 3.68 h 2.33 v 6 c 0,2.77 1.87,4.42 5,4.42 a 5,5 0 0 0 2.09,-0.37 l 0.4,-3.4 a 2.62,2.62 0 0 1 -1.16,0.18 c -1.2,0 -1.85,-0.49 -1.85,-1.69 v -5.16 h 3.62 l 0.87,-3.68 z m 29,-0.06 a 4.32,4.32 0 0 0 -1.29,-0.19 4,4 0 0 0 -4,3.35 v 0 -3.1 h -4.45 v 13.91 h 4.42 v -6.48 c 0,-2.21 1.32,-3 2.76,-3 a 3.38,3.38 0 0 1 1.35,0.34 l 1.11,-4.85 z m 16.33,0.06 h -4.14 l -2,5.4 c -0.31,0.8 -0.61,1.78 -0.89,2.74 h -0.06 a 19.34,19.34 0 0 0 -0.83,-2.74 l -2,-5.4 h -4.36 l 5,13 a 8.68,8.68 0 0 1 -5.1,5.43 l 2.76,2.76 c 2.61,-1 4.82,-3 6.94,-8.62 l 4.73,-12.53 z"
     id="path23937" />
  <path
     style="fill:#fcbf00"
     class="cls-11"
     d="m 847.19,642.65 a 1.52,1.52 0 0 0 -3,0 1.52,1.52 0 1 0 3,0 z m 62.66,11.21 a 7.58,7.58 0 1 0 -7.58,7.4 7.3,7.3 0 0 0 7.58,-7.4 z"
     id="path23939" />
  <polygon
     style="fill:#e74310"
     class="cls-3"
     points="576.14,725.67 576.14,0 0,0 0,725.67 "
     id="polygon23915" />
  <path
     style="fill:#fde7da"
     class="cls-5"
     d="m 336.48,534.05 c 13.5,-21.77 10.76,-42.46 -7,-54.81 -17.76,-12.35 -33,-1.43 -40,3.23 v 0 c -7,-4.69 -23.18,-16.05 -40.32,-3.05 -17.14,13 -18.41,38.22 -7.18,54.79 11.23,16.57 47.23,46.71 47.23,46.71 0,0 33.94,-25.36 47.26,-46.87 z"
     id="path23921" />
</svg>
