<?xml version="1.0" encoding="UTF-8" standalone="no"?>
<svg
   xmlns:dc="http://purl.org/dc/elements/1.1/"
   xmlns:cc="http://creativecommons.org/ns#"
   xmlns:rdf="http://www.w3.org/1999/02/22-rdf-syntax-ns#"
   xmlns:svg="http://www.w3.org/2000/svg"
   xmlns="http://www.w3.org/2000/svg"
   xmlns:sodipodi="http://sodipodi.sourceforge.net/DTD/sodipodi-0.dtd"
   xmlns:inkscape="http://www.inkscape.org/namespaces/inkscape"
   id="Layer_1"
   data-name="Layer 1"
   viewBox="0 0 1142.37 737.01"
   version="1.1"
   sodipodi:docname="dl-21-01-2021-31.svg"
   inkscape:version="1.0 (4035a4f, 2020-05-01)">
  <metadata
     id="metadata15114">
    <rdf:RDF>
      <cc:Work
         rdf:about="">
        <dc:format>image/svg+xml</dc:format>
        <dc:type
           rdf:resource="http://purl.org/dc/dcmitype/StillImage" />
        <dc:title></dc:title>
      </cc:Work>
    </rdf:RDF>
  </metadata>
  <sodipodi:namedview
     inkscape:document-rotation="0"
     pagecolor="#ffffff"
     bordercolor="#666666"
     borderopacity="1"
     objecttolerance="10"
     gridtolerance="10"
     guidetolerance="10"
     inkscape:pageopacity="0"
     inkscape:pageshadow="2"
     inkscape:window-width="1080"
     inkscape:window-height="704"
     id="namedview1187"
     showgrid="false"
     inkscape:zoom="0.53182881"
     inkscape:cx="571.185"
     inkscape:cy="368.505"
     inkscape:window-x="0"
     inkscape:window-y="23"
     inkscape:window-maximized="0"
     inkscape:current-layer="Layer_1" />
  <defs
     id="defs1120">
    <style
       id="style1115">.cls-1,.cls-9{fill:none;}.cls-2{fill:#fff;}.cls-3{fill:#c0bee0;}.cls-4{fill:#fde7da;}.cls-5{fill:#009640;}.cls-6,.cls-7{font-size:18px;fill:#e74310;font-family:AmericanTypewriter-Light, American Typewriter;font-weight:300;}.cls-7{letter-spacing:-0.07em;}.cls-8{clip-path:url(#clip-path);}.cls-9{stroke:#1d1d1b;stroke-width:0.5px;}.cls-10{fill:#ededed;}</style>
  </defs>
  <polygon
     style="fill:#ffffff"
     class="cls-2"
     points="0,14.17 0,722.83 566.93,722.83 566.93,14.17 "
     id="polygon14937" />
  <polygon
     style="fill:#ffffff"
     class="cls-2"
     points="566.93,14.17 566.93,722.83 1133.86,722.83 1133.86,14.17 "
     id="polygon14939" />
  <polygon
     style="fill:#fde7da"
     class="cls-3"
     points="567.18,413.86 567.18,731.34 1142.37,731.34 1142.37,413.86 "
     id="polygon14941" />
  <path
     style="fill:#c0bee0"
     class="cls-6"
     d="m 1029.93,356.61 a 66.77,66.77 0 1 0 -66.77,-66.77 66.77,66.77 0 0 0 66.77,66.77 z"
     id="path14947" />
  <polygon
     style="fill:#ededed"
     class="cls-7"
     points="651.97,80.95 651.97,244.44 878.67,244.44 878.67,80.95 "
     id="polygon14949" />
  <polygon
     style="fill:#ededed"
     class="cls-7"
     points="1054.67,79.93 891.19,79.93 891.19,306.63 1054.67,306.63 "
     id="polygon14951" />
  <path
     clip-path="url(#clip-path)"
     style="fill:#d8e7bf"
     class="cls-8"
     d="m 118.19,252.58 a 66.76,66.76 0 0 0 66.76,-66.76 66.76,66.76 0 0 0 -66.76,-66.76 66.77,66.77 0 0 0 -66.77,66.76 66.77,66.77 0 0 0 66.77,66.76 z"
     id="path14953" />
  <polygon
     style="fill:#ededed"
     class="cls-7"
     points="104.01,42.52 104.01,206 330.71,206 330.71,42.52 "
     id="polygon14955" />
  <polygon
     style="fill:#ededed"
     class="cls-7"
     points="255.19,218.27 255.19,381.75 481.89,381.75 481.89,218.27 "
     id="polygon14957" />
  <polygon
     style="fill:#009640"
     class="cls-9"
     points="727.56,447.17 727.56,665.67 1091.34,665.67 1091.34,447.17 "
     id="polygon14959" />
  <polygon
     style="fill:#009640"
     class="cls-9"
     points="42.52,447.17 42.52,666.14 406.3,666.14 406.3,447.17 "
     id="polygon15009" />
</svg>
