<?xml version="1.0" encoding="UTF-8" standalone="no"?>
<svg
   xmlns:dc="http://purl.org/dc/elements/1.1/"
   xmlns:cc="http://creativecommons.org/ns#"
   xmlns:rdf="http://www.w3.org/1999/02/22-rdf-syntax-ns#"
   xmlns:svg="http://www.w3.org/2000/svg"
   xmlns="http://www.w3.org/2000/svg"
   xmlns:sodipodi="http://sodipodi.sourceforge.net/DTD/sodipodi-0.dtd"
   xmlns:inkscape="http://www.inkscape.org/namespaces/inkscape"
   id="Layer_1"
   data-name="Layer 1"
   viewBox="0 0 1142.37 737.01"
   version="1.1"
   sodipodi:docname="dl-21-01-2021-20.svg"
   inkscape:version="1.0 (4035a4f, 2020-05-01)">
  <metadata
     id="metadata7022">
    <rdf:RDF>
      <cc:Work
         rdf:about="">
        <dc:format>image/svg+xml</dc:format>
        <dc:type
           rdf:resource="http://purl.org/dc/dcmitype/StillImage" />
        <dc:title></dc:title>
      </cc:Work>
    </rdf:RDF>
  </metadata>
  <sodipodi:namedview
     inkscape:document-rotation="0"
     pagecolor="#ffffff"
     bordercolor="#666666"
     borderopacity="1"
     objecttolerance="10"
     gridtolerance="10"
     guidetolerance="10"
     inkscape:pageopacity="0"
     inkscape:pageshadow="2"
     inkscape:window-width="1080"
     inkscape:window-height="704"
     id="namedview1187"
     showgrid="false"
     inkscape:zoom="0.53182881"
     inkscape:cx="571.185"
     inkscape:cy="368.505"
     inkscape:window-x="0"
     inkscape:window-y="23"
     inkscape:window-maximized="0"
     inkscape:current-layer="Layer_1" />
  <defs
     id="defs1120">
    <style
       id="style1115">.cls-1,.cls-9{fill:none;}.cls-2{fill:#fff;}.cls-3{fill:#c0bee0;}.cls-4{fill:#fde7da;}.cls-5{fill:#009640;}.cls-6,.cls-7{font-size:18px;fill:#e74310;font-family:AmericanTypewriter-Light, American Typewriter;font-weight:300;}.cls-7{letter-spacing:-0.07em;}.cls-8{clip-path:url(#clip-path);}.cls-9{stroke:#1d1d1b;stroke-width:0.5px;}.cls-10{fill:#ededed;}</style>
  </defs>
  <polygon
     style="fill:#ffffff"
     class="cls-2"
     points="0,14.17 0,722.83 566.93,722.83 566.93,14.17 "
     id="polygon6855" />
  <polygon
     style="fill:#ffffff"
     class="cls-2"
     points="566.93,14.17 566.93,722.83 1133.86,722.83 1133.86,14.17 "
     id="polygon6857" />
  <polygon
     style="fill:#f8c9df"
     class="cls-3"
     points="170.48,147.26 170.48,42.52 65.74,42.52 65.74,147.26 "
     id="polygon6859" />
  <polygon
     style="fill:#009640"
     class="cls-6"
     points="727.56,447.17 727.56,665.67 1091.34,665.67 1091.34,447.17 "
     id="polygon6865" />
  <polygon
     style="fill:#009640"
     class="cls-6"
     points="42.52,447.17 42.52,666.14 406.3,666.14 406.3,447.17 "
     id="polygon6915" />
  <polygon
     style="fill:#ededed"
     class="cls-9"
     points="279.69,355.67 443.17,355.67 443.17,128.98 279.69,128.98 "
     id="polygon6963" />
  <polygon
     style="fill:#ededed"
     class="cls-9"
     points="103.94,298.99 267.42,298.99 267.42,72.29 103.94,72.29 "
     id="polygon6965" />
  <path
     style="fill:#d8e7bf"
     class="cls-10"
     d="M 916.41,405.31 A 174.94,174.94 0 1 0 741.47,230.37 174.93,174.93 0 0 0 916.41,405.31 Z"
     id="path6967" />
  <polygon
     style="fill:#ededed"
     class="cls-9"
     points="1041.27,80.79 877.79,80.79 877.79,307.49 1041.27,307.49 "
     id="polygon6969" />
  <polygon
     style="fill:#ededed"
     class="cls-9"
     points="702.04,307.49 865.52,307.49 865.52,80.79 702.04,80.79 "
     id="polygon6971" />
</svg>
