<?xml version="1.0" encoding="UTF-8" standalone="no"?>
<svg
   xmlns:dc="http://purl.org/dc/elements/1.1/"
   xmlns:cc="http://creativecommons.org/ns#"
   xmlns:rdf="http://www.w3.org/1999/02/22-rdf-syntax-ns#"
   xmlns:svg="http://www.w3.org/2000/svg"
   xmlns="http://www.w3.org/2000/svg"
   xmlns:sodipodi="http://sodipodi.sourceforge.net/DTD/sodipodi-0.dtd"
   xmlns:inkscape="http://www.inkscape.org/namespaces/inkscape"
   id="Layer_1"
   data-name="Layer 1"
   viewBox="0 0 1142.37 737.01"
   version="1.1"
   sodipodi:docname="dl-21-01-2021-25.svg"
   inkscape:version="1.0 (4035a4f, 2020-05-01)">
  <metadata
     id="metadata18197">
    <rdf:RDF>
      <cc:Work
         rdf:about="">
        <dc:format>image/svg+xml</dc:format>
        <dc:type
           rdf:resource="http://purl.org/dc/dcmitype/StillImage" />
        <dc:title></dc:title>
      </cc:Work>
    </rdf:RDF>
  </metadata>
  <sodipodi:namedview
     inkscape:document-rotation="0"
     pagecolor="#ffffff"
     bordercolor="#666666"
     borderopacity="1"
     objecttolerance="10"
     gridtolerance="10"
     guidetolerance="10"
     inkscape:pageopacity="0"
     inkscape:pageshadow="2"
     inkscape:window-width="1080"
     inkscape:window-height="704"
     id="namedview1187"
     showgrid="false"
     inkscape:zoom="0.53182881"
     inkscape:cx="571.185"
     inkscape:cy="368.505"
     inkscape:window-x="0"
     inkscape:window-y="63"
     inkscape:window-maximized="0"
     inkscape:current-layer="Layer_1" />
  <defs
     id="defs1120">
    <style
       id="style1115">.cls-1,.cls-9{fill:none;}.cls-2{fill:#fff;}.cls-3{fill:#c0bee0;}.cls-4{fill:#fde7da;}.cls-5{fill:#009640;}.cls-6,.cls-7{font-size:18px;fill:#e74310;font-family:AmericanTypewriter-Light, American Typewriter;font-weight:300;}.cls-7{letter-spacing:-0.07em;}.cls-8{clip-path:url(#clip-path);}.cls-9{stroke:#1d1d1b;stroke-width:0.5px;}.cls-10{fill:#ededed;}</style>
  </defs>
  <polygon
     style="fill:#ffffff"
     class="cls-2"
     points="0,14.17 0,722.83 566.93,722.83 566.93,14.17 "
     id="polygon18027" />
  <polygon
     style="fill:#ffffff"
     class="cls-2"
     points="566.93,14.17 566.93,722.83 1133.86,722.83 1133.86,14.17 "
     id="polygon18029" />
  <polygon
     style="fill:#fde7da"
     class="cls-3"
     points="566.93,413.86 566.93,731.34 1142.37,731.34 1142.37,413.86 "
     id="polygon18031" />
  <polygon
     style="fill:#e8f1da"
     class="cls-6"
     points="481.89,171.35 481.89,66.61 377.15,66.61 377.15,171.35 "
     id="polygon18037" />
  <polygon
     style="fill:#ededed"
     class="cls-7"
     points="42.59,110.55 42.59,274.04 269.29,274.04 269.29,110.55 "
     id="polygon18039" />
  <polygon
     style="fill:#ededed"
     class="cls-7"
     points="445.3,109.21 281.81,109.21 281.81,335.9 445.3,335.9 "
     id="polygon18041" />
  <path
     style="fill:#fde7da"
     class="cls-3"
     d="m 900.62,381.75 a 66.77,66.77 0 1 0 -66.77,-66.76 66.76,66.76 0 0 0 66.77,66.76 z"
     id="path18043" />
  <polygon
     style="fill:#ededed"
     class="cls-7"
     points="651.97,42.52 651.97,206 878.67,206 878.67,42.52 "
     id="polygon18045" />
  <polygon
     style="fill:#ededed"
     class="cls-7"
     points="1054.67,109.21 891.19,109.21 891.19,335.9 1054.67,335.9 "
     id="polygon18047" />
  <polygon
     clip-path="url(#clip-path)"
     style="fill:#009640"
     class="cls-8"
     points="727.56,447.17 727.56,665.67 1091.34,665.67 1091.34,447.17 "
     id="polygon18049" />
  <polygon
     clip-path="url(#clip-path)"
     style="fill:#009640"
     class="cls-8"
     points="42.52,447.17 42.52,666.14 406.3,666.14 406.3,447.17 "
     id="polygon18099" />
</svg>
