<?xml version="1.0" encoding="UTF-8" standalone="no"?>
<svg
   xmlns:dc="http://purl.org/dc/elements/1.1/"
   xmlns:cc="http://creativecommons.org/ns#"
   xmlns:rdf="http://www.w3.org/1999/02/22-rdf-syntax-ns#"
   xmlns:svg="http://www.w3.org/2000/svg"
   xmlns="http://www.w3.org/2000/svg"
   width="1512"
   height="945"
   viewBox="0 0 1512 945"
   version="1.1"
   id="svg4634">
  <defs
     id="defs4628" />
  <metadata
     id="metadata4631">
    <rdf:RDF>
      <cc:Work
         rdf:about="">
        <dc:format>image/svg+xml</dc:format>
        <dc:type
           rdf:resource="http://purl.org/dc/dcmitype/StillImage" />
        <dc:title></dc:title>
      </cc:Work>
    </rdf:RDF>
  </metadata>
  <g
     id="layer1" />
  <path
     d="m 1251.5013,187.56401 -98.7453,-98.74666 -98.7467,98.74666 98.7467,98.74534 98.7453,-98.74534"
     style="fill:#b6b0df;fill-opacity:1;fill-rule:nonzero;stroke:none;stroke-width:0.133333"
     id="path14" />
  <path
     d="M 349.07333,425.19601 V 564.844 h 139.648 V 425.19601 h -139.648"
     style="fill:#f9b2dc;fill-opacity:1;fill-rule:nonzero;stroke:none;stroke-width:0.133333"
     id="path16" />
  <path
     d="m 1168.7066,869.2904 c 49.164,0 89.0187,-39.85574 89.0187,-89.01973 0,-49.16267 -39.8547,-89.01867 -89.0187,-89.01867 -49.164,0 -89.0186,39.856 -89.0186,89.01867 0,49.16399 39.8546,89.01973 89.0186,89.01973"
     style="fill:#ccebae;fill-opacity:1;fill-rule:nonzero;stroke:none;stroke-width:0.133333"
     id="path18" />
  <path
     d="M 1171.6533,381.73068 V 774.80133 H 1455.12 V 381.73068 h -283.4667"
     style="fill:#e9e9e9;fill-opacity:1;fill-rule:nonzero;stroke:none;stroke-width:0.133333"
     id="path20" />
  <path
     d="M 869.92398,177.63601 V 570.70667 H 1153.3893 V 177.63601 H 869.92398"
     style="fill:#e9e9e9;fill-opacity:1;fill-rule:nonzero;stroke:none;stroke-width:0.133333"
     id="path22" />
  <path
     d="M 157.48,476.21867 V 869.28933 H 440.94533 V 476.21867 H 157.48"
     style="fill:#e9e9e9;fill-opacity:1;fill-rule:nonzero;stroke:none;stroke-width:0.133333"
     id="path24" />
</svg>
