<svg id="Layer_1" data-name="Layer 1" xmlns="http://www.w3.org/2000/svg" xmlns:xlink="http://www.w3.org/1999/xlink" viewBox="0 0 1055.78 737.01"><defs><style>.cls-1,.cls-4{fill:none;}.cls-2{fill:#c0bee0;}.cls-3{clip-path:url(#clip-path);}.cls-4{stroke:#1d1d1b;stroke-width:0.5px;}.cls-5{fill:#ededed;}.cls-6{font-size:18px;fill:#e74310;font-family:AmericanTypewriter-Light, American Typewriter;font-weight:300;}.cls-7{fill:#fde7da;}.cls-8{fill:#d8e7bf;}</style><clipPath id="clip-path" transform="translate(-78.33 14.17)"><rect class="cls-1" width="1133.76" height="708.66"/></clipPath></defs><polygon class="cls-2" points="773.79 229.61 699.73 303.67 773.79 377.73 847.85 303.67 773.79 229.61 773.79 229.61"/><g class="cls-3"><path class="cls-4" d="M566.93-14.17v737" transform="translate(-78.33 14.17)"/></g><polygon class="cls-5" points="176.86 218.27 176.86 381.75 403.56 381.75 403.56 218.27 176.86 218.27 176.86 218.27"/><polygon class="cls-5" points="163.48 42.52 0 42.52 0 269.22 163.48 269.22 163.48 42.52 163.48 42.52"/><text class="cls-6" transform="translate(39.78 459.55)">Lorumq</text><text class="cls-6" transform="translate(108.08 459.55)">ue q</text><text class="cls-6" transform="translate(143.11 459.55)">uam q</text><text class="cls-6" transform="translate(195.84 459.55)">uatia dolupta tiorestibus </text><text class="cls-6" transform="translate(39.78 481.54)">aut doluptas eium ini aut q</text><text class="cls-6" transform="translate(267.48 481.54)">uia v</text><text class="cls-6" transform="translate(308.48 481.54)">el molupta </text><text class="cls-6" transform="translate(39.78 503.55)">q</text><text class="cls-6" transform="translate(49.41 503.55)">uatios simolupta.</text><text class="cls-6" transform="translate(39.78 547.55)">P</text><text class="cls-6" transform="translate(50.89 547.55)">oruntem con perumendam, te </text><text class="cls-6" transform="translate(39.78 569.55)">laboremq</text><text class="cls-6" transform="translate(120.19 569.55)">uod millorp oratese recatiberit </text><text class="cls-6" transform="translate(39.78 591.54)">optatur</text><text class="cls-6" transform="translate(101.83 591.54)">, iur mo iumq</text><text class="cls-6" transform="translate(216.36 591.54)">ui.</text><g class="cls-3"><polygon class="cls-7" points="488.85 413.86 488.85 722.83 1055.78 722.83 1055.78 413.86 488.85 413.86 488.85 413.86"/></g><text class="cls-6" transform="translate(649.23 459.55)">Lorumq</text><text class="cls-6" transform="translate(717.52 459.55)">ue q</text><text class="cls-6" transform="translate(752.56 459.55)">uam q</text><text class="cls-6" transform="translate(805.29 459.55)">uatia dolupta tiorestibus </text><text class="cls-6" transform="translate(649.23 481.54)">aut doluptas eium ini aut q</text><text class="cls-6" transform="translate(876.93 481.54)">uia v</text><text class="cls-6" transform="translate(917.93 481.54)">el molupta </text><text class="cls-6" transform="translate(649.23 503.55)">q</text><text class="cls-6" transform="translate(658.86 503.55)">uatios simolupta.</text><text class="cls-6" transform="translate(649.23 547.55)">P</text><text class="cls-6" transform="translate(660.34 547.55)">oruntem con perumendam, te </text><text class="cls-6" transform="translate(649.23 569.55)">laboremq</text><text class="cls-6" transform="translate(729.64 569.55)">uod millorp oratese recatiberit </text><text class="cls-6" transform="translate(649.23 591.54)">optatur</text><text class="cls-6" transform="translate(711.28 591.54)">, iur mo iumq</text><text class="cls-6" transform="translate(825.81 591.54)">ui.</text><polygon class="cls-5" points="786.31 42.52 786.31 206 1013.01 206 1013.01 42.52 786.31 42.52 786.31 42.52"/><polygon class="cls-5" points="773.79 79.93 610.31 79.93 610.31 306.63 773.79 306.63 773.79 79.93 773.79 79.93"/><polygon class="cls-8" points="160.5 300.01 101.2 402.72 219.8 402.72 160.5 300.01 160.5 300.01"/></svg>