<svg id="Layer_1" data-name="Layer 1" xmlns="http://www.w3.org/2000/svg" xmlns:xlink="http://www.w3.org/1999/xlink" viewBox="0 0 1077.88 737.01"><defs><style>.cls-1,.cls-6{fill:none;}.cls-2{clip-path:url(#clip-path);}.cls-3{fill:#c0bee0;}.cls-4{fill:#fde7da;}.cls-5{font-size:18px;fill:#e74310;font-family:AmericanTypewriter-Light, American Typewriter;font-weight:300;}.cls-6{stroke:#1d1d1b;stroke-width:0.5px;}.cls-7{fill:#ededed;}</style><clipPath id="clip-path" transform="translate(-55.98 14.17)"><rect class="cls-1" width="1133.76" height="708.66"/></clipPath></defs><g class="cls-2"><path class="cls-3" d="M230.92,464.68A174.94,174.94,0,1,0,56,289.74,174.94,174.94,0,0,0,230.92,464.68Z" transform="translate(-55.98 14.17)"/><polygon class="cls-4" points="510.94 14.17 510.94 722.83 1077.88 722.83 1077.88 14.17 510.94 14.17 510.94 14.17"/></g><text class="cls-5" transform="translate(671.58 336.94)">Lorumq</text><text class="cls-5" transform="translate(739.87 336.94)">ue q</text><text class="cls-5" transform="translate(774.91 336.94)">uam q</text><text class="cls-5" transform="translate(827.63 336.94)">uatia dolupta tiorestibus </text><text class="cls-5" transform="translate(671.58 358.95)">aut doluptas eium ini aut q</text><text class="cls-5" transform="translate(899.27 358.95)">uia v</text><text class="cls-5" transform="translate(940.27 358.95)">el molupta </text><text class="cls-5" transform="translate(671.58 380.95)">q</text><text class="cls-5" transform="translate(681.2 380.95)">uatios simolupta.</text><text class="cls-5" transform="translate(671.58 424.96)">P</text><text class="cls-5" transform="translate(682.68 424.96)">oruntem con perumendam, te </text><text class="cls-5" transform="translate(671.58 446.94)">laboremq</text><text class="cls-5" transform="translate(751.98 446.94)">uod millorp oratese recatiberit </text><text class="cls-5" transform="translate(671.58 468.95)">optatur</text><text class="cls-5" transform="translate(733.62 468.95)">, iur mo iumq</text><text class="cls-5" transform="translate(848.16 468.95)">ui</text><g class="cls-2"><path class="cls-6" d="M566.93-14.17v737" transform="translate(-55.98 14.17)"/></g><polygon class="cls-7" points="120.09 215.43 120.09 578.27 397.89 578.27 397.89 215.43 120.09 215.43 120.09 215.43"/></svg>