<svg id="Layer_1" data-name="Layer 1" xmlns="http://www.w3.org/2000/svg" xmlns:xlink="http://www.w3.org/1999/xlink" viewBox="0 0 1091.1 708.66"><defs><style>.cls-1{fill:none;}.cls-2{fill:#c0bee0;}.cls-3{clip-path:url(#clip-path);}.cls-4{fill:#d8e7bf;}.cls-5{fill:#fde7da;}.cls-6{font-size:18px;fill:#e74310;font-family:AmericanTypewriter-Light, American Typewriter;font-weight:300;}.cls-7{fill:#ededed;}</style><clipPath id="clip-path" transform="translate(0 0)"><rect class="cls-1" width="1133.76" height="708.66"/></clipPath></defs><polygon class="cls-2" points="938.39 102.41 864.33 28.35 790.27 102.41 864.33 176.47 938.39 102.41 938.39 102.41"/><g class="cls-3"><path class="cls-4" d="M876.29,652a66.77,66.77,0,1,0-66.76-66.77A66.77,66.77,0,0,0,876.29,652Z" transform="translate(0 0)"/><polygon class="cls-5" points="0 0 0 708.66 566.93 708.66 566.93 0 0 0 0 0"/></g><text class="cls-6" transform="translate(118.11 334.67)">Lorumq</text><text class="cls-6" transform="translate(186.41 334.67)">ue q</text><text class="cls-6" transform="translate(221.5 334.67)">uam q</text><text class="cls-6" transform="translate(274.3 334.67)">uatia dolupta </text><text class="cls-6" transform="translate(118.11 356.67)">tiorestibus aut doluptas eium </text><text class="cls-6" transform="translate(118.11 378.67)">ini aut q</text><text class="cls-6" transform="translate(187.84 378.67)">uia v</text><text class="cls-6" transform="translate(228.84 378.67)">el molupta q</text><text class="cls-6" transform="translate(332.98 378.67)">uatios </text><text class="cls-6" transform="translate(118.11 400.67)">simolupta.</text><text class="cls-6" transform="translate(118.11 444.67)">P</text><text class="cls-6" transform="translate(129.22 444.67)">oruntem con perumendam, </text><text class="cls-6" transform="translate(118.11 466.67)">te laboremq</text><text class="cls-6" transform="translate(219.07 466.67)">uod millorp oratese </text><text class="cls-6" transform="translate(118.11 488.67)">recatiberit optatur</text><text class="cls-6" transform="translate(274.76 488.67)">, iur mo iumq</text><text class="cls-6" transform="translate(389.27 488.67)">ui</text><polygon class="cls-7" points="878.5 290.4 878.5 585.2 1091.1 585.2 1091.1 290.4 878.5 290.4 878.5 290.4"/><polygon class="cls-7" points="652.21 94.96 652.21 389.76 864.8 389.76 864.8 94.96 652.21 94.96 652.21 94.96"/></svg>