<svg id="Layer_1" data-name="Layer 1" xmlns="http://www.w3.org/2000/svg" xmlns:xlink="http://www.w3.org/1999/xlink" viewBox="0 0 1142.36 725.67"><defs><style>.cls-1{fill:none;}.cls-2{clip-path:url(#clip-path);}.cls-3{fill:#e74310;}.cls-4{fill:#fff;}.cls-5{fill:#fde7da;}.cls-6,.cls-7,.cls-8,.cls-9{font-size:8px;font-family:Agenda-Light, Agenda;font-weight:300;}.cls-10,.cls-6,.cls-7,.cls-8,.cls-9{fill:#1d1d1b;}.cls-7{letter-spacing:-0.02em;}.cls-8{letter-spacing:-0.01em;}.cls-9{letter-spacing:-0.02em;}.cls-11{fill:#fcbf00;}</style><clipPath id="clip-path" transform="translate(0.12 0)"><rect class="cls-1" width="1150.75" height="725.67"/></clipPath></defs><g class="cls-2"><polygon class="cls-3" points="0 0 0 725.67 576.14 725.67 576.14 0 0 0 0 0"/></g><polygon class="cls-4" points="575.43 8.5 575.43 717.16 1142.36 717.16 1142.36 8.5 575.43 8.5 575.43 8.5"/><path class="cls-5" d="M336.36,534.05c13.5-21.77,10.76-42.46-7-54.81s-33-1.43-40,3.23h0c-7-4.69-23.18-16.05-40.32-3.05s-18.41,38.22-7.18,54.79,47.23,46.71,47.23,46.71,33.94-25.36,47.26-46.87Z" transform="translate(0.12 0)"/><text class="cls-6" transform="translate(853.19 624.38)">A </text><text class="cls-7" transform="translate(859.9 624.38)">fa</text><text class="cls-6" transform="translate(865.89 624.38)">mi</text><text class="cls-8" transform="translate(873.66 624.38)">ly</text><text class="cls-6" transform="translate(878.96 624.38)"><tspan xml:space="preserve"> book </tspan></text><text class="cls-9" transform="translate(899.27 624.38)">by</text><path class="cls-10" d="M825.12,646.92h-5v-4.11L817.84,644v2.95h-2.76v1.84h2.76v8.35a3.74,3.74,0,0,0,4.08,3.87,3.8,3.8,0,0,0,1.54-.27l.21-1.85a3.29,3.29,0,0,1-1.35.25c-1.38,0-2.24-.58-2.24-2.21v-8.14h4.61l.43-1.84Zm14.79,13.91v-9.27c0-3.07-2.24-5-5.31-5-2.3,0-3.62.89-4.2,2h0V639H828v21.86h2.37v-9.06c0-1.69,1.32-3.13,3.65-3.13s3.53,1.44,3.53,3.13v9.06Zm6.82,0V646.92h-2.39v13.91Zm12.89-3.78c0-2.3-1.56-3.56-4.23-4.51-1.44-.52-2.21-1-2.21-2.12s.86-1.78,2.15-1.78a5,5,0,0,1,3,.92l.49-1.93a7.45,7.45,0,0,0-3.47-.89c-2.55,0-4.39,1.53-4.39,3.77s1.47,3.38,4.08,4.3c1.44.52,2.3,1.2,2.3,2.33s-1.07,1.94-2.51,1.94a6.53,6.53,0,0,1-4.18-1.6l.31,2.46A6.58,6.58,0,0,0,854.8,661c3.08,0,4.82-1.69,4.82-4Zm20.7-.43c0-2.33-1.29-3.9-4.42-4.73-.86-.21-1.23-.49-1.23-1s.49-.89,1.23-.89a6.37,6.37,0,0,1,2.88.77l.77-3.32a10.21,10.21,0,0,0-4.11-.83c-3,0-5.22,1.75-5.22,4.48,0,2.43,1.59,3.78,4.26,4.55.8.25,1.26.49,1.26,1.07s-.52,1-1.35,1a8,8,0,0,1-4.36-1.51l.4,4a9.27,9.27,0,0,0,4.42,1c3.75,0,5.47-2.15,5.47-4.52Zm13-9.7h-4.49v-4.61l-4.48,1.63v3H882v3.68h2.33v6c0,2.77,1.87,4.42,5,4.42a5,5,0,0,0,2.09-.37l.4-3.4a2.62,2.62,0,0,1-1.16.18c-1.2,0-1.85-.49-1.85-1.69V650.6h3.62l.87-3.68Zm29-.06a4.32,4.32,0,0,0-1.29-.19,4,4,0,0,0-4,3.35h0v-3.1h-4.45v13.91H917v-6.48c0-2.21,1.32-3,2.76-3a3.38,3.38,0,0,1,1.35.34l1.11-4.85Zm16.33.06h-4.14l-2,5.4c-.31.8-.61,1.78-.89,2.74h-.06a19.34,19.34,0,0,0-.83-2.74l-2-5.4h-4.36l5,13a8.68,8.68,0,0,1-5.1,5.43l2.76,2.76c2.61-1,4.82-3,6.94-8.62l4.73-12.53Z" transform="translate(0.12 0)"/><path class="cls-11" d="M847.07,642.65a1.52,1.52,0,0,0-3,0,1.52,1.52,0,1,0,3,0Zm62.66,11.21a7.58,7.58,0,1,0-7.58,7.4,7.3,7.3,0,0,0,7.58-7.4Z" transform="translate(0.12 0)"/></svg>