<svg id="Layer_1" data-name="Layer 1" xmlns="http://www.w3.org/2000/svg" xmlns:xlink="http://www.w3.org/1999/xlink" viewBox="0 0 1142.37 737.01"><defs><style>.cls-1,.cls-9{fill:none;}.cls-2{fill:#fff;}.cls-3{fill:#c0bee0;}.cls-4{fill:#fde7da;}.cls-5{fill:#009640;}.cls-6,.cls-7{font-size:18px;fill:#e74310;font-family:AmericanTypewriter-Light, American Typewriter;font-weight:300;}.cls-7{letter-spacing:-0.07em;}.cls-8{clip-path:url(#clip-path);}.cls-9{stroke:#1d1d1b;stroke-width:0.5px;}.cls-10{fill:#ededed;}</style><clipPath id="clip-path" transform="translate(261.62 -28.33)"><rect class="cls-1" x="-270" y="34" width="1150.75" height="725.67"/></clipPath></defs><polygon class="cls-2" points="0 14.17 0 722.83 566.93 722.83 566.93 14.17 0 14.17 0 14.17"/><path class="cls-3" d="M-30.69,507.18A174.93,174.93,0,0,0,144.24,332.24,174.93,174.93,0,0,0-30.69,157.31,174.93,174.93,0,0,0-205.63,332.24,174.94,174.94,0,0,0-30.69,507.18Z" transform="translate(261.62 -28.33)"/><polygon class="cls-4" points="566.93 5.67 566.93 731.34 1142.37 731.34 1142.37 5.67 566.93 5.67 566.93 5.67"/><polygon class="cls-5" points="727.56 324.57 727.56 591.73 1091.34 591.73 1091.34 324.57 727.56 324.57 727.56 324.57"/><text class="cls-6" transform="translate(727.56 336.94)">x 727</text><text class="cls-6" transform="translate(774.4 336.94)"><tspan xml:space="preserve">.559 px  y </tspan></text><text class="cls-7" transform="translate(861.51 336.94)">31</text><text class="cls-6" transform="translate(880.66 336.94)">0.394 px</text><text class="cls-6" transform="translate(727.56 358.95)"><tspan xml:space="preserve">w 363.78 px   h 267</tspan></text><text class="cls-6" transform="translate(892.56 358.95)">.1</text><text class="cls-6" transform="translate(905.66 358.95)">65 px</text><text class="cls-6" transform="translate(727.56 402.95)">Lorumq</text><text class="cls-6" transform="translate(795.85 402.95)">ue q</text><text class="cls-6" transform="translate(830.89 402.95)">uam q</text><text class="cls-6" transform="translate(883.62 402.95)">uatia dolupta tiorestibus </text><text class="cls-6" transform="translate(727.56 424.96)">aut doluptas eium ini aut q</text><text class="cls-6" transform="translate(955.26 424.96)">uia v</text><text class="cls-6" transform="translate(996.26 424.96)">el molupta </text><text class="cls-6" transform="translate(727.56 446.94)">q</text><text class="cls-6" transform="translate(737.19 446.94)">uatios simolupta.</text><text class="cls-6" transform="translate(727.56 490.95)">P</text><text class="cls-6" transform="translate(738.66 490.95)">oruntem con perumendam, te </text><text class="cls-6" transform="translate(727.56 512.95)">laboremq</text><text class="cls-6" transform="translate(807.97 512.95)">uod millorp oratese recatiberit </text><text class="cls-6" transform="translate(727.56 534.96)">optatur</text><text class="cls-6" transform="translate(789.61 534.96)">, iur mo iumq</text><text class="cls-6" transform="translate(904.14 534.96)">ui</text><g class="cls-8"><path class="cls-9" d="M305.31,28.33v737" transform="translate(261.62 -28.33)"/></g><polygon class="cls-10" points="176.07 215.43 176.07 578.27 453.87 578.27 453.87 215.43 176.07 215.43 176.07 215.43"/></svg>