<svg id="Layer_1" data-name="Layer 1" xmlns="http://www.w3.org/2000/svg" xmlns:xlink="http://www.w3.org/1999/xlink" viewBox="0 0 1150.87 737.01"><defs><style>.cls-1,.cls-5{fill:none;}.cls-2{clip-path:url(#clip-path);}.cls-3{fill:#fde7da;}.cls-4{fill:#fff;}.cls-5{stroke:#1d1d1b;stroke-width:0.5px;}.cls-6{fill:#dadada;}.cls-7{fill:#009640;}.cls-8,.cls-9{font-size:18px;fill:#e74310;font-family:AmericanTypewriter-Light, American Typewriter;font-weight:300;}.cls-9{letter-spacing:0.08em;}</style><clipPath id="clip-path" transform="translate(270.12 -28.33)"><rect class="cls-1" x="-270" y="34" width="1150.75" height="725.67"/></clipPath></defs><g class="cls-2"><polygon class="cls-3" points="0 5.67 0 731.34 575.43 731.34 575.43 5.67 0 5.67 0 5.67"/></g><polygon class="cls-3" points="575.43 5.67 575.43 731.34 1150.87 731.34 1150.87 5.67 575.43 5.67 575.43 5.67"/><path class="cls-4" d="M596.76,538.57A174.94,174.94,0,1,0,421.82,363.63,174.94,174.94,0,0,0,596.76,538.57Z" transform="translate(270.12 -28.33)"/><g class="cls-2"><path class="cls-5" d="M305.31,28.33v737" transform="translate(270.12 -28.33)"/></g><polygon class="cls-6" points="1099.37 611.47 1099.37 398.87 804.57 398.87 804.57 611.47 1099.37 611.47 1099.37 611.47"/><polygon class="cls-6" points="660.95 384.8 873.54 384.8 873.54 90 660.95 90 660.95 384.8 660.95 384.8"/><polygon class="cls-7" points="51.02 206.93 51.02 569.76 414.8 569.76 414.8 206.93 51.02 206.93 51.02 206.93"/><text class="cls-8" transform="translate(51.03 219.31)"><tspan xml:space="preserve">x 42.52 px  y 1</tspan></text><text class="cls-8" transform="translate(174.39 219.31)">92.756 px</text><text class="cls-8" transform="translate(51.03 241.31)"><tspan xml:space="preserve">w 363.78 px   h 362.835 px</tspan></text><text class="cls-8" transform="translate(51.03 285.32)">Donor pag</text><text class="cls-8" transform="translate(139.58 285.32)">e v</text><text class="cls-8" transform="translate(163.23 285.32)">elia porum ad mod q</text><text class="cls-8" transform="translate(336.96 285.32)">uasint</text><text class="cls-8" transform="translate(391.36 285.32)"> </text><text class="cls-8" transform="translate(51.03 307.32)">ulparuptas dem et eicabor ruptatu ritibus </text><text class="cls-8" transform="translate(51.03 329.31)">q</text><text class="cls-8" transform="translate(60.65 329.31)">uae peri autem diorum fugita q</text><text class="cls-8" transform="translate(326.39 329.31)">ui ut q</text><text class="cls-8" transform="translate(380.07 329.31)">ui </text><text class="cls-8" transform="translate(51.03 351.31)">utesti num raerunt ea doluptat v</text><text class="cls-8" transform="translate(329.57 351.31)">enesectet</text><text class="cls-8" transform="translate(410.85 351.31)"> </text><text class="cls-8" transform="translate(51.03 373.32)">q</text><text class="cls-8" transform="translate(60.65 373.32)">uassum. </text><text class="cls-8" transform="translate(51.03 417.32)">V</text><text class="cls-8" transform="translate(61.26 417.32)">oluptis re nia v</text><text class="cls-8" transform="translate(188.31 417.32)">oluptaturis dolore </text><text class="cls-8" transform="translate(51.03 439.31)">dus etum ex e</text><text class="cls-8" transform="translate(169.91 439.31)">v</text><text class="cls-8" transform="translate(179.56 439.31)">endentur sunt, tet</text><text class="cls-8" transform="translate(334.72 439.31)"> </text><text class="cls-8" transform="translate(51.03 461.31)">maximincimus unt omnis sintiatium </text><text class="cls-8" transform="translate(51.03 483.32)">fugiti simint a eost aut oﬃ</text><text class="cls-9" transform="translate(263.67 483.32)"><tspan xml:space="preserve">  c</tspan></text><text class="cls-8" transform="translate(284.85 483.32)">tem reperna </text><text class="cls-8" transform="translate(51.03 505.32)">tiusdae v</text><text class="cls-8" transform="translate(127.45 505.32)">oluptatem</text></svg>