<svg id="Layer_1" data-name="Layer 1" xmlns="http://www.w3.org/2000/svg" xmlns:xlink="http://www.w3.org/1999/xlink" viewBox="0 0 1020.12 750.93"><defs><style>.cls-1{fill:none;}.cls-2{fill:#e74310;}.cls-3,.cls-4,.cls-5,.cls-6{font-size:8px;font-family:Agenda-Light, Agenda;}.cls-10,.cls-3,.cls-4,.cls-5,.cls-6,.cls-7,.cls-8,.cls-9{fill:#1d1d1b;}.cls-16,.cls-17,.cls-18,.cls-19,.cls-20,.cls-21,.cls-3,.cls-4,.cls-5,.cls-6{font-weight:300;}.cls-4{letter-spacing:-0.02em;}.cls-5{letter-spacing:-0.01em;}.cls-6{letter-spacing:-0.02em;}.cls-7,.cls-8,.cls-9{font-size:11px;font-family:Agenda-Regular, Agenda;}.cls-8{letter-spacing:-0.02em;}.cls-9{letter-spacing:0em;}.cls-11{clip-path:url(#clip-path);}.cls-12{fill:#fcbf00;}.cls-13{fill:#c8dea3;}.cls-14{fill:#b3b1d9;}.cls-15{fill:#009640;}.cls-16,.cls-17,.cls-18,.cls-19{font-size:28px;}.cls-16,.cls-17,.cls-18,.cls-19,.cls-20,.cls-21{fill:#fff;font-family:AmericanTypewriter-Light, American Typewriter;}.cls-17{letter-spacing:-0.03em;}.cls-18{letter-spacing:-0.08em;}.cls-19{letter-spacing:-0.04em;}.cls-20,.cls-21{font-size:14px;}.cls-21{letter-spacing:-0.03em;}.cls-22{fill:#fff59b;}.cls-23{fill:#f5b5d2;}</style><clipPath id="clip-path" transform="translate(139.37 -26.05)"><rect class="cls-1" x="-270" y="34" width="1150.75" height="725.67"/></clipPath></defs><polygon class="cls-2" points="444.43 7.96 444.43 733.62 1020.12 733.62 1020.12 7.96 444.43 7.96 444.43 7.96"/><text class="cls-3" transform="translate(112.98 632.34)">A </text><text class="cls-4" transform="translate(119.7 632.34)">fa</text><text class="cls-3" transform="translate(125.68 632.34)">mi</text><text class="cls-5" transform="translate(133.45 632.34)">ly</text><text class="cls-3" transform="translate(138.77 632.34)"><tspan xml:space="preserve"> book </tspan></text><text class="cls-6" transform="translate(159.07 632.34)">by</text><text class="cls-7" transform="translate(0 379.05)">This book is dedic</text><text class="cls-8" transform="translate(78.98 379.05)">at</text><text class="cls-9" transform="translate(87.41 379.05)">ed to Hazel and all the people who l</text><text class="cls-8" transform="translate(246.75 379.05)">ove</text><text class="cls-7" transform="translate(262.84 379.05)"><tspan xml:space="preserve"> her</tspan></text><path class="cls-10" d="M-54.33,680.92h-5v-4.11L-61.61,678v2.95h-2.76v1.84h2.76v8.35c0,2.52,1.81,3.87,4.09,3.87a3.78,3.78,0,0,0,1.53-.27l.22-1.85a3.34,3.34,0,0,1-1.36.25c-1.38,0-2.24-.58-2.24-2.21v-8.14h4.61l.43-1.84Zm14.8,13.91v-9.27c0-3.07-2.24-5-5.32-5-2.3,0-3.62.89-4.2,2h0V673h-2.37v21.86h2.37v-9.06c0-1.69,1.32-3.13,3.65-3.13s3.53,1.44,3.53,3.13v9.06Zm6.81,0V680.92h-2.39v13.91Zm12.9-3.78c0-2.3-1.57-3.56-4.24-4.51-1.44-.52-2.21-1-2.21-2.12s.86-1.78,2.15-1.78a5,5,0,0,1,3,.92l.49-1.93a7.45,7.45,0,0,0-3.47-.89c-2.55,0-4.39,1.53-4.39,3.77s1.47,3.38,4.08,4.3c1.45.52,2.3,1.2,2.3,2.33s-1.07,1.94-2.51,1.94a6.55,6.55,0,0,1-4.18-1.6l.31,2.46A6.59,6.59,0,0,0-24.64,695c3.07,0,4.82-1.69,4.82-4Zm20.69-.43c0-2.33-1.29-3.9-4.42-4.73-.86-.21-1.23-.49-1.23-1s.49-.89,1.23-.89a6.45,6.45,0,0,1,2.89.77l.76-3.32A10.21,10.21,0,0,0-4,680.61c-3,0-5.22,1.75-5.22,4.48,0,2.43,1.59,3.78,4.27,4.55.79.25,1.26.49,1.26,1.07s-.53,1-1.36,1a8,8,0,0,1-4.36-1.51l.4,4a9.27,9.27,0,0,0,4.42,1c3.75,0,5.47-2.15,5.47-4.52Zm13-9.7H9.34v-4.61l-4.48,1.63v3H2.53v3.68H4.86v6c0,2.77,1.87,4.42,5,4.42a5,5,0,0,0,2.08-.37l.4-3.4a2.6,2.6,0,0,1-1.16.18c-1.2,0-1.85-.49-1.85-1.69V684.6H13l.86-3.68Zm29-.06a4.32,4.32,0,0,0-1.29-.19,4,4,0,0,0-4,3.35h0v-3.1H33.08v13.91h4.51v-6.48c0-2.21,1.32-3,2.76-3a3.38,3.38,0,0,1,1.35.34l1.11-4.85Zm16.33.06H55l-2,5.4c-.31.8-.61,1.78-.89,2.74H52a19.34,19.34,0,0,0-.83-2.74l-2-5.4H44.8l5,13a8.68,8.68,0,0,1-5.1,5.43l2.77,2.76c2.6-1,4.82-3,6.93-8.62l4.73-12.53Z" transform="translate(139.37 -26.05)"/><g class="cls-11"><path class="cls-12" d="M-32.38,676.65a2.21,2.21,0,0,0-1.54-1.5,2.23,2.23,0,0,0-1.5,1.5,2.35,2.35,0,0,0,1.5,1.54,2.33,2.33,0,0,0,1.54-1.54Zm62.66,11.21a7.29,7.29,0,0,0-7.58-7.4,7.4,7.4,0,1,0,0,14.8,7.29,7.29,0,0,0,7.58-7.4Z" transform="translate(139.37 -26.05)"/><path class="cls-13" d="M690.27,777a73.15,73.15,0,1,0-73.15-73.14A73.15,73.15,0,0,0,690.27,777Z" transform="translate(139.37 -26.05)"/><polygon class="cls-14" points="678.74 73.43 605.31 0 531.88 73.43 605.31 146.85 678.74 73.43 678.74 73.43"/></g><path class="cls-2" d="M54.61,324c15.62-25.22,12.45-49.18-8.11-63.48S8.27,258.8.18,264.21h0c-8.07-5.43-26.85-18.6-46.7-3.54s-21.32,44.27-8.32,63.46,54.71,54.1,54.71,54.1S39.18,348.85,54.61,324Z" transform="translate(139.37 -26.05)"/><polygon class="cls-15" points="605.31 193.62 605.31 594.73 969.09 594.73 969.09 193.62 605.31 193.62 605.31 193.62"/><text class="cls-16" transform="translate(605.31 212.89)">Dear Hazel</text><text class="cls-16" transform="translate(605.31 272.89)">Lik</text><text class="cls-16" transform="translate(647.39 272.89)">e </text><text class="cls-17" transform="translate(669.18 272.89)">ev</text><text class="cls-16" transform="translate(698.27 272.89)">er</text><text class="cls-16" transform="translate(727.16 272.89)">y per</text><text class="cls-16" transform="translate(794.51 272.89)">son, </text><text class="cls-17" transform="translate(855.54 272.89)">ev</text><text class="cls-16" transform="translate(884.63 272.89)">er</text><text class="cls-16" transform="translate(913.53 272.89)">y </text><text class="cls-16" transform="translate(605.31 302.89)">f</text><text class="cls-16" transform="translate(614.1 302.89)">amil</text><text class="cls-16" transform="translate(672.42 302.89)">y has its o</text><text class="cls-16" transform="translate(803.07 302.89)">wn stor</text><text class="cls-18" transform="translate(904.23 302.89)">y,</text><text class="cls-16" transform="translate(924.02 302.89)"> </text><text class="cls-16" transform="translate(605.31 332.89)">whic</text><text class="cls-16" transform="translate(667.24 332.89)">h shapes who </text><text class="cls-19" transform="translate(852.89 332.89)">we</text><text class="cls-16" transform="translate(888.61 332.89)"><tspan xml:space="preserve"> are. </tspan></text><text class="cls-16" transform="translate(605.31 362.89)">This book is f</text><text class="cls-16" transform="translate(777.98 362.89)">or y</text><text class="cls-16" transform="translate(829 362.89)">ou, and </text><text class="cls-16" transform="translate(605.31 392.89)">tells the stor</text><text class="cls-16" transform="translate(770.54 392.89)">y of ho</text><text class="cls-16" transform="translate(857.48 392.89)">w our </text><text class="cls-16" transform="translate(605.31 422.89)">f</text><text class="cls-16" transform="translate(614.1 422.89)">amil</text><text class="cls-16" transform="translate(672.42 422.89)">y came to be.</text><text class="cls-16" transform="translate(605.31 482.89)">Mumm</text><text class="cls-16" transform="translate(701.34 482.89)">y and Daddy</text><text class="cls-20" transform="translate(605.31 522.89)">Jonathan W</text><text class="cls-20" transform="translate(684.42 522.89)">illiams and Tracy W</text><text class="cls-20" transform="translate(814.61 522.89)">illiams-Fielding, </text><text class="cls-20" transform="translate(605.31 540.89)">London the 20 N</text><text class="cls-21" transform="translate(715.98 540.89)">ov</text><text class="cls-20" transform="translate(730.72 540.89)">ember 2020</text><polygon class="cls-22" points="949.39 195.04 877.75 89.41 806.1 195.04 949.39 195.04 949.39 195.04"/><polygon class="cls-23" points="444.68 407.5 444.68 529.53 515.69 529.53 515.69 407.5 444.68 407.5 444.68 407.5"/></svg>