<svg id="Layer_1" data-name="Layer 1" xmlns="http://www.w3.org/2000/svg" xmlns:xlink="http://www.w3.org/1999/xlink" viewBox="0 0 1142.36 737.01"><defs><style>.cls-1,.cls-7{fill:none;}.cls-2{fill:#fff;}.cls-3{clip-path:url(#clip-path);}.cls-4{fill:#fde7da;}.cls-5{fill:#c0bee0;}.cls-6{fill:#f8c9df;}.cls-7{stroke:#1d1d1b;stroke-width:0.5px;}.cls-8{fill:#ededed;}.cls-9{fill:#009640;}.cls-10,.cls-11{font-size:18px;fill:#e74310;font-family:AmericanTypewriter-Light, American Typewriter;font-weight:300;}.cls-11{letter-spacing:-0.07em;}</style><clipPath id="clip-path" transform="translate(270.12 -28.33)"><rect class="cls-1" x="-270" y="34" width="1150.75" height="725.67"/></clipPath></defs><polygon class="cls-2" points="8.5 14.17 8.5 722.83 575.43 722.83 575.43 14.17 8.5 14.17 8.5 14.17"/><g class="cls-3"><polygon class="cls-2" points="575.43 14.17 575.43 722.83 1142.36 722.83 1142.36 14.17 575.43 14.17 575.43 14.17"/><polygon class="cls-4" points="0 413.86 0 731.34 575.43 731.34 575.43 413.86 0 413.86 0 413.86"/></g><polygon class="cls-5" points="703.96 87.87 629.9 161.93 703.96 235.99 778.02 161.93 703.96 87.87 703.96 87.87"/><polygon class="cls-6" points="45.35 205.58 45.35 310.32 150.09 310.32 150.09 205.58 45.35 205.58 45.35 205.58"/><g class="cls-3"><path class="cls-7" d="M305.31,28.33v737" transform="translate(270.12 -28.33)"/></g><polygon class="cls-8" points="263.7 187.47 263.7 350.96 490.39 350.96 490.39 187.47 263.7 187.47 263.7 187.47"/><polygon class="cls-8" points="873.14 42.52 873.14 206 1099.84 206 1099.84 42.52 873.14 42.52 873.14 42.52"/><polygon class="cls-8" points="250.31 42.52 86.83 42.52 86.83 269.22 250.31 269.22 250.31 42.52 250.31 42.52"/><polygon class="cls-8" points="859.76 155.87 696.28 155.87 696.28 382.57 859.76 382.57 859.76 155.87 859.76 155.87"/><polygon class="cls-9" points="736.06 447.17 736.06 665.67 1099.84 665.67 1099.84 447.17 736.06 447.17 736.06 447.17"/><text class="cls-10" transform="translate(736.07 459.55)">x 727</text><text class="cls-10" transform="translate(782.9 459.55)"><tspan xml:space="preserve">.559 px  y 432.992 px</tspan></text><text class="cls-10" transform="translate(736.07 481.54)"><tspan xml:space="preserve">w 363.78 px  h </tspan></text><text class="cls-11" transform="translate(865.37 481.54)">21</text><text class="cls-10" transform="translate(884.67 481.54)">8.97</text><text class="cls-10" transform="translate(921.14 481.54)">6 px </text><text class="cls-10" transform="translate(736.07 503.55)">Lorumq</text><text class="cls-10" transform="translate(804.35 503.55)">ue q</text><text class="cls-10" transform="translate(839.39 503.55)">uam q</text><text class="cls-10" transform="translate(892.12 503.55)">uatia dolupta tiorestibus </text><text class="cls-10" transform="translate(736.07 525.55)">aut doluptas eium ini aut q</text><text class="cls-10" transform="translate(963.76 525.55)">uia v</text><text class="cls-10" transform="translate(1004.76 525.55)">el molupta </text><text class="cls-10" transform="translate(736.07 547.55)">q</text><text class="cls-10" transform="translate(745.69 547.55)">uatios simolupta.</text><text class="cls-10" transform="translate(736.07 591.54)">P</text><text class="cls-10" transform="translate(747.17 591.54)">oruntem con perumendam, te </text><text class="cls-10" transform="translate(736.07 613.55)">laboremq</text><text class="cls-10" transform="translate(816.47 613.55)">uod millorp oratese recatiberit </text><text class="cls-10" transform="translate(736.07 635.55)">optatur</text><text class="cls-10" transform="translate(798.11 635.55)">, iur mo iumq</text><text class="cls-10" transform="translate(912.64 635.55)">ui.</text><polygon class="cls-9" points="51.02 447.17 51.02 666.14 414.8 666.14 414.8 447.17 51.02 447.17 51.02 447.17"/><text class="cls-10" transform="translate(51.03 459.55)"><tspan xml:space="preserve">x 42.52 px  y 432.992 px</tspan></text><text class="cls-10" transform="translate(51.03 481.54)"><tspan xml:space="preserve">w 363.78 px  h </tspan></text><text class="cls-11" transform="translate(180.33 481.54)">21</text><text class="cls-10" transform="translate(199.63 481.54)">8.97</text><text class="cls-10" transform="translate(236.1 481.54)">6 px </text><text class="cls-10" transform="translate(51.03 503.55)">Lorumq</text><text class="cls-10" transform="translate(119.32 503.55)">ue q</text><text class="cls-10" transform="translate(154.35 503.55)">uam q</text><text class="cls-10" transform="translate(207.08 503.55)">uatia dolupta tiorestibus </text><text class="cls-10" transform="translate(51.03 525.55)">aut doluptas eium ini aut q</text><text class="cls-10" transform="translate(278.72 525.55)">uia v</text><text class="cls-10" transform="translate(319.73 525.55)">el molupta </text><text class="cls-10" transform="translate(51.03 547.55)">q</text><text class="cls-10" transform="translate(60.65 547.55)">uatios simolupta.</text><text class="cls-10" transform="translate(51.03 591.54)">P</text><text class="cls-10" transform="translate(62.13 591.54)">oruntem con perumendam, te </text><text class="cls-10" transform="translate(51.03 613.55)">laboremq</text><text class="cls-10" transform="translate(131.43 613.55)">uod millorp oratese recatiberit </text><text class="cls-10" transform="translate(51.03 635.55)">optatur</text><text class="cls-10" transform="translate(113.07 635.55)">, iur mo iumq</text><text class="cls-10" transform="translate(227.6 635.55)">ui.</text></svg>