<svg id="Layer_1" data-name="Layer 1" xmlns="http://www.w3.org/2000/svg" xmlns:xlink="http://www.w3.org/1999/xlink" viewBox="0 0 1133.86 737.01"><defs><style>.cls-1,.cls-10{fill:none;}.cls-2{fill:#fff;}.cls-3{fill:#c0bee0;}.cls-4{fill:#f8c9df;}.cls-5{fill:#d8e7bf;}.cls-6{fill:#ededed;}.cls-7{fill:#009640;}.cls-8{font-size:18px;fill:#e74310;font-family:AmericanTypewriter-Light, American Typewriter;font-weight:300;}.cls-9{clip-path:url(#clip-path);}.cls-10{stroke:#1d1d1b;stroke-width:0.5px;}</style><clipPath id="clip-path" transform="translate(261.62 -28.33)"><rect class="cls-1" x="-270" y="34" width="1150.75" height="725.67"/></clipPath></defs><polygon class="cls-2" points="0 14.17 0 722.83 566.93 722.83 566.93 14.17 0 14.17 0 14.17"/><polygon class="cls-2" points="566.93 14.17 566.93 722.83 1133.86 722.83 1133.86 14.17 566.93 14.17 566.93 14.17"/><polygon class="cls-3" points="938.63 154.85 864.57 80.79 790.51 154.85 864.57 228.91 938.63 154.85 938.63 154.85"/><polygon class="cls-4" points="261.81 333.07 261.81 437.81 366.54 437.81 366.54 333.07 261.81 333.07 261.81 333.07"/><path class="cls-5" d="M614.91,694.47a66.77,66.77,0,1,0-66.76-66.76,66.76,66.76,0,0,0,66.76,66.76Z" transform="translate(261.62 -28.33)"/><polygon class="cls-6" points="878.74 300.47 878.74 595.27 1091.34 595.27 1091.34 300.47 878.74 300.47 878.74 300.47"/><polygon class="cls-6" points="652.44 147.4 652.44 442.2 865.04 442.2 865.04 147.4 652.44 147.4 652.44 147.4"/><polygon class="cls-6" points="118.11 371.34 118.11 666.14 330.71 666.14 330.71 371.34 118.11 371.34 118.11 371.34"/><polygon class="cls-7" points="42.52 110.55 42.52 335.9 406.3 335.9 406.3 110.55 42.52 110.55 42.52 110.55"/><text class="cls-8" transform="translate(42.52 122.93)"><tspan xml:space="preserve">x 42.52 px  y 96.378 px</tspan></text><text class="cls-8" transform="translate(42.52 144.93)"><tspan xml:space="preserve">w 363.78 px   middle h 253.622 px</tspan></text><text class="cls-8" transform="translate(42.52 188.94)">Lorumq</text><text class="cls-8" transform="translate(110.81 188.94)">ue q</text><text class="cls-8" transform="translate(145.85 188.94)">uam q</text><text class="cls-8" transform="translate(198.58 188.94)">uatia dolupta tiorestibus </text><text class="cls-8" transform="translate(42.52 210.93)">aut doluptas eium ini aut q</text><text class="cls-8" transform="translate(270.22 210.93)">uia v</text><text class="cls-8" transform="translate(311.23 210.93)">el molupta </text><text class="cls-8" transform="translate(42.52 232.93)">q</text><text class="cls-8" transform="translate(52.15 232.93)">uatios simolupta.</text><text class="cls-8" transform="translate(42.52 276.93)">P</text><text class="cls-8" transform="translate(53.62 276.93)">oruntem con perumendam, te </text><text class="cls-8" transform="translate(42.52 298.94)">laboremq</text><text class="cls-8" transform="translate(122.93 298.94)">uod millorp oratese recatiberit </text><text class="cls-8" transform="translate(42.52 320.93)">optatur</text><text class="cls-8" transform="translate(104.57 320.93)">, iur mo iumq</text><text class="cls-8" transform="translate(219.1 320.93)">ui.</text><g class="cls-9"><path class="cls-10" d="M305.31,28.33v737" transform="translate(261.62 -28.33)"/></g></svg>