<svg id="Layer_1" data-name="Layer 1" xmlns="http://www.w3.org/2000/svg" xmlns:xlink="http://www.w3.org/1999/xlink" viewBox="0 0 1133.86 737.01"><defs><style>.cls-1,.cls-6{fill:none;}.cls-2{fill:#fff;}.cls-3{fill:#c0bee0;}.cls-4{fill:#e8f1da;}.cls-5{clip-path:url(#clip-path);}.cls-6{stroke:#1d1d1b;stroke-width:0.5px;}.cls-7{fill:#ededed;}.cls-8{fill:#009640;}.cls-10,.cls-9{font-size:18px;fill:#e74310;font-family:AmericanTypewriter-Light, American Typewriter;font-weight:300;}.cls-10{letter-spacing:-0.07em;}</style><clipPath id="clip-path" transform="translate(261.62 -28.33)"><rect class="cls-1" x="-270" y="34" width="1150.75" height="725.67"/></clipPath></defs><polygon class="cls-2" points="0 14.17 0 722.83 566.93 722.83 566.93 14.17 0 14.17 0 14.17"/><polygon class="cls-2" points="566.93 14.17 566.93 722.83 1133.86 722.83 1133.86 14.17 566.93 14.17 566.93 14.17"/><polygon class="cls-3" points="1033.59 80.99 959.53 155.05 1033.59 229.11 1107.65 155.05 1033.59 80.99 1033.59 80.99"/><polygon class="cls-4" points="202.75 42.52 202.75 147.26 307.49 147.26 307.49 42.52 202.75 42.52 202.75 42.52"/><g class="cls-5"><path class="cls-6" d="M305.31,28.33v737" transform="translate(261.62 -28.33)"/></g><polygon class="cls-7" points="42.59 80.79 42.59 244.27 269.29 244.27 269.29 80.79 42.59 80.79 42.59 80.79"/><polygon class="cls-7" points="1041.27 155.05 877.79 155.05 877.79 381.75 1041.27 381.75 1041.27 155.05 1041.27 155.05"/><polygon class="cls-7" points="445.3 155.05 281.81 155.05 281.81 381.75 445.3 381.75 445.3 155.05 445.3 155.05"/><polygon class="cls-7" points="865.52 80.79 702.04 80.79 702.04 307.49 865.52 307.49 865.52 80.79 865.52 80.79"/><polygon class="cls-8" points="727.56 447.17 727.56 665.67 1091.34 665.67 1091.34 447.17 727.56 447.17 727.56 447.17"/><text class="cls-9" transform="translate(727.56 459.55)">x 727</text><text class="cls-9" transform="translate(774.4 459.55)"><tspan xml:space="preserve">.559 px  y 432.992 px</tspan></text><text class="cls-9" transform="translate(727.56 481.54)"><tspan xml:space="preserve">w 363.78 px  h </tspan></text><text class="cls-10" transform="translate(856.87 481.54)">21</text><text class="cls-9" transform="translate(876.16 481.54)">8.97</text><text class="cls-9" transform="translate(912.63 481.54)">6 px </text><text class="cls-9" transform="translate(727.56 503.55)">Lorumq</text><text class="cls-9" transform="translate(795.85 503.55)">ue q</text><text class="cls-9" transform="translate(830.89 503.55)">uam q</text><text class="cls-9" transform="translate(883.62 503.55)">uatia dolupta tiorestibus </text><text class="cls-9" transform="translate(727.56 525.55)">aut doluptas eium ini aut q</text><text class="cls-9" transform="translate(955.26 525.55)">uia v</text><text class="cls-9" transform="translate(996.26 525.55)">el molupta </text><text class="cls-9" transform="translate(727.56 547.55)">q</text><text class="cls-9" transform="translate(737.19 547.55)">uatios simolupta.</text><text class="cls-9" transform="translate(727.56 591.54)">P</text><text class="cls-9" transform="translate(738.66 591.54)">oruntem con perumendam, te </text><text class="cls-9" transform="translate(727.56 613.55)">laboremq</text><text class="cls-9" transform="translate(807.97 613.55)">uod millorp oratese recatiberit </text><text class="cls-9" transform="translate(727.56 635.55)">optatur</text><text class="cls-9" transform="translate(789.61 635.55)">, iur mo iumq</text><text class="cls-9" transform="translate(904.14 635.55)">ui.</text><polygon class="cls-8" points="42.52 447.17 42.52 666.14 406.3 666.14 406.3 447.17 42.52 447.17 42.52 447.17"/><text class="cls-9" transform="translate(42.52 459.55)"><tspan xml:space="preserve">x 42.52 px  y 432.992 px</tspan></text><text class="cls-9" transform="translate(42.52 481.54)"><tspan xml:space="preserve">w 363.78 px  h </tspan></text><text class="cls-10" transform="translate(171.83 481.54)">21</text><text class="cls-9" transform="translate(191.12 481.54)">8.97</text><text class="cls-9" transform="translate(227.59 481.54)">6 px </text><text class="cls-9" transform="translate(42.52 503.55)">Lorumq</text><text class="cls-9" transform="translate(110.81 503.55)">ue q</text><text class="cls-9" transform="translate(145.85 503.55)">uam q</text><text class="cls-9" transform="translate(198.58 503.55)">uatia dolupta tiorestibus </text><text class="cls-9" transform="translate(42.52 525.55)">aut doluptas eium ini aut q</text><text class="cls-9" transform="translate(270.22 525.55)">uia v</text><text class="cls-9" transform="translate(311.23 525.55)">el molupta </text><text class="cls-9" transform="translate(42.52 547.55)">q</text><text class="cls-9" transform="translate(52.15 547.55)">uatios simolupta.</text><text class="cls-9" transform="translate(42.52 591.54)">P</text><text class="cls-9" transform="translate(53.62 591.54)">oruntem con perumendam, te </text><text class="cls-9" transform="translate(42.52 613.55)">laboremq</text><text class="cls-9" transform="translate(122.93 613.55)">uod millorp oratese recatiberit </text><text class="cls-9" transform="translate(42.52 635.55)">optatur</text><text class="cls-9" transform="translate(104.57 635.55)">, iur mo iumq</text><text class="cls-9" transform="translate(219.1 635.55)">ui.</text></svg>