<?xml version="1.0" encoding="UTF-8" standalone="no"?>
<svg
   xmlns:dc="http://purl.org/dc/elements/1.1/"
   xmlns:cc="http://creativecommons.org/ns#"
   xmlns:rdf="http://www.w3.org/1999/02/22-rdf-syntax-ns#"
   xmlns:svg="http://www.w3.org/2000/svg"
   xmlns="http://www.w3.org/2000/svg"
   xmlns:sodipodi="http://sodipodi.sourceforge.net/DTD/sodipodi-0.dtd"
   xmlns:inkscape="http://www.inkscape.org/namespaces/inkscape"
   id="Layer_1"
   data-name="Layer 1"
   viewBox="0 0 1142.37 737.01"
   version="1.1"
   sodipodi:docname="Spreads-Template-Orange-FINAL For Viktor_4.svg">
  <metadata
     id="metadata1846">
    <rdf:RDF>
      <cc:Work
         rdf:about="">
        <dc:format>image/svg+xml</dc:format>
        <dc:type
           rdf:resource="http://purl.org/dc/dcmitype/StillImage" />
        <dc:title></dc:title>
      </cc:Work>
    </rdf:RDF>
  </metadata>
  <sodipodi:namedview
     pagecolor="#ffffff"
     bordercolor="#666666"
     borderopacity="1"
     objecttolerance="10"
     gridtolerance="10"
     guidetolerance="10"
     inkscape:pageopacity="0"
     inkscape:pageshadow="2"
     inkscape:window-width="640"
     inkscape:window-height="480"
     id="namedview1844"
     showgrid="false" />
  <defs
     id="defs1777">
    <style
       id="style1772">.cls-1,.cls-9{fill:none;}.cls-2{fill:#fff;}.cls-3{fill:#c0bee0;}.cls-4{fill:#fde7da;}.cls-5{fill:#009640;}.cls-6,.cls-7{font-size:18px;fill:#e74310;font-family:AmericanTypewriter-Light, American Typewriter;font-weight:300;}.cls-7{letter-spacing:-0.07em;}.cls-8{clip-path:url(#clip-path);}.cls-9{stroke:#1d1d1b;stroke-width:0.5px;}.cls-10{fill:#ededed;}</style>
    <clipPath
       id="clip-path"
       transform="translate(261.62 -28.33)">
      <rect
         class="cls-1"
         x="-270"
         y="34"
         width="1150.75"
         height="725.67"
         id="rect1774" />
    </clipPath>
  </defs>
  <polygon
     class="cls-2"
     points="0 14.17 0 722.83 566.93 722.83 566.93 14.17 0 14.17 0 14.17"
     id="polygon1779" />
  <path
     class="cls-3"
     d="M-30.69,507.18A174.93,174.93,0,0,0,144.24,332.24,174.93,174.93,0,0,0-30.69,157.31,174.93,174.93,0,0,0-205.63,332.24,174.94,174.94,0,0,0-30.69,507.18Z"
     transform="translate(261.62 -28.33)"
     id="path1781" />
  <polygon
     class="cls-4"
     points="566.93 5.67 566.93 731.34 1142.37 731.34 1142.37 5.67 566.93 5.67 566.93 5.67"
     id="polygon1783" />
  <polygon
     class="cls-5"
     points="1091.34,591.73 1091.34,324.57 727.56,324.57 727.56,591.73 "
     id="polygon1785" />
  <text
     class="cls-6"
     transform="translate(892.56 358.95)"
     id="text1801">.1</text>
  <text
     class="cls-6"
     transform="translate(727.56 402.95)"
     id="text1805">Lorumq</text>
  <text
     class="cls-6"
     transform="translate(795.85 402.95)"
     id="text1807">ue q</text>
  <text
     class="cls-6"
     transform="translate(830.89 402.95)"
     id="text1809">uam q</text>
  <text
     class="cls-6"
     transform="translate(883.62 402.95)"
     id="text1811">uatia dolupta tiorestibus </text>
  <text
     class="cls-6"
     transform="translate(727.56 424.96)"
     id="text1813">aut doluptas eium ini aut q</text>
  <text
     class="cls-6"
     transform="translate(955.26 424.96)"
     id="text1815">uia v</text>
  <text
     class="cls-6"
     transform="translate(996.26 424.96)"
     id="text1817">el molupta </text>
  <text
     class="cls-6"
     transform="translate(727.56 446.94)"
     id="text1819">q</text>
  <text
     class="cls-6"
     transform="translate(737.19 446.94)"
     id="text1821">uatios simolupta.</text>
  <text
     class="cls-6"
     transform="translate(727.56 490.95)"
     id="text1823">P</text>
  <text
     class="cls-6"
     transform="translate(738.66 490.95)"
     id="text1825">oruntem con perumendam, te </text>
  <text
     class="cls-6"
     transform="translate(727.56 512.95)"
     id="text1827">laboremq</text>
  <text
     class="cls-6"
     transform="translate(807.97 512.95)"
     id="text1829">uod millorp oratese recatiberit </text>
  <text
     class="cls-6"
     transform="translate(727.56 534.96)"
     id="text1831">optatur</text>
  <text
     class="cls-6"
     transform="translate(789.61 534.96)"
     id="text1833">, iur mo iumq</text>
  <text
     class="cls-6"
     transform="translate(904.14 534.96)"
     id="text1835">ui</text>
  <g
     class="cls-8"
     clip-path="url(#clip-path)"
     id="g1839">
    <path
       class="cls-9"
       d="M305.31,28.33v737"
       transform="translate(261.62 -28.33)"
       id="path1837" />
  </g>
  <polygon
     class="cls-10"
     points="176.07 215.43 176.07 578.27 453.87 578.27 453.87 215.43 176.07 215.43 176.07 215.43"
     id="polygon1841" />
</svg>
