<svg id="Layer_1" data-name="Layer 1" xmlns="http://www.w3.org/2000/svg" xmlns:xlink="http://www.w3.org/1999/xlink" viewBox="0 0 1150.87 788.74"><defs><style>.cls-1,.cls-6{fill:none;}.cls-2{clip-path:url(#clip-path);}.cls-3{fill:#fde7da;}.cls-4{fill:#fff;}.cls-5{fill:#dadada;}.cls-6{stroke:#1d1d1b;stroke-width:0.5px;}.cls-7{fill:#009640;}.cls-8,.cls-9{font-size:18px;fill:#e74310;font-family:AmericanTypewriter-Light, American Typewriter;font-weight:300;}.cls-9{letter-spacing:-0.07em;}</style><clipPath id="clip-path" transform="translate(270.12 29.07)"><rect class="cls-1" x="-270" y="34" width="1150.75" height="725.67"/></clipPath></defs><g class="cls-2"><polygon class="cls-3" points="0 63.07 0 788.74 575.43 788.74 575.43 63.07 0 63.07 0 63.07"/></g><polygon class="cls-3" points="575.43 63.07 575.43 788.74 1150.87 788.74 1150.87 63.07 575.43 63.07 575.43 63.07"/><path class="cls-4" d="M727.12,235.26a66.77,66.77,0,1,0-66.77-66.76,66.76,66.76,0,0,0,66.77,66.76Z" transform="translate(270.12 29.07)"/><polygon class="cls-5" points="1019.06 462.05 1019.06 99.21 741.26 99.21 741.26 462.05 1019.06 462.05 1019.06 462.05"/><path class="cls-4" d="M-143.51,399.67a66.76,66.76,0,0,0,66.77-66.76,66.76,66.76,0,0,0-66.77-66.77,66.76,66.76,0,0,0-66.76,66.77,66.76,66.76,0,0,0,66.76,66.76Z" transform="translate(270.12 29.07)"/><polygon class="cls-5" points="404.41 462.05 404.41 99.21 126.61 99.21 126.61 462.05 404.41 462.05 404.41 462.05"/><g class="cls-2"><path class="cls-6" d="M305.31-29.07v737" transform="translate(270.12 29.07)"/></g><polygon class="cls-7" points="736.06 504.57 736.06 723.07 1099.84 723.07 1099.84 504.57 736.06 504.57 736.06 504.57"/><text class="cls-8" transform="translate(736.07 516.95)">x 727</text><text class="cls-8" transform="translate(782.9 516.95)"><tspan xml:space="preserve">.559 px  y 432.992 px</tspan></text><text class="cls-8" transform="translate(736.07 538.94)"><tspan xml:space="preserve">w 363.78 px  h </tspan></text><text class="cls-9" transform="translate(865.37 538.94)">21</text><text class="cls-8" transform="translate(884.67 538.94)">8.97</text><text class="cls-8" transform="translate(921.14 538.94)">6 px </text><text class="cls-8" transform="translate(736.07 560.95)">Lorumq</text><text class="cls-8" transform="translate(804.35 560.95)">ue q</text><text class="cls-8" transform="translate(839.39 560.95)">uam q</text><text class="cls-8" transform="translate(892.12 560.95)">uatia dolupta tiorestibus </text><text class="cls-8" transform="translate(736.07 582.95)">aut doluptas eium ini aut q</text><text class="cls-8" transform="translate(963.76 582.95)">uia v</text><text class="cls-8" transform="translate(1004.76 582.95)">el molupta </text><text class="cls-8" transform="translate(736.07 604.95)">q</text><text class="cls-8" transform="translate(745.69 604.95)">uatios simolupta.</text><text class="cls-8" transform="translate(736.07 648.94)">P</text><text class="cls-8" transform="translate(747.17 648.94)">oruntem con perumendam, te </text><text class="cls-8" transform="translate(736.07 670.95)">laboremq</text><text class="cls-8" transform="translate(816.47 670.95)">uod millorp oratese recatiberit </text><text class="cls-8" transform="translate(736.07 692.95)">optatur</text><text class="cls-8" transform="translate(798.11 692.95)">, iur mo iumq</text><text class="cls-8" transform="translate(912.64 692.95)">ui.</text><polygon class="cls-7" points="51.02 504.57 51.02 723.54 414.8 723.54 414.8 504.57 51.02 504.57 51.02 504.57"/><text class="cls-8" transform="translate(51.03 516.95)"><tspan xml:space="preserve">x 42.52 px  y 432.992 px</tspan></text><text class="cls-8" transform="translate(51.03 538.94)"><tspan xml:space="preserve">w 363.78 px  h </tspan></text><text class="cls-9" transform="translate(180.33 538.94)">21</text><text class="cls-8" transform="translate(199.63 538.94)">8.97</text><text class="cls-8" transform="translate(236.1 538.94)">6 px </text><text class="cls-8" transform="translate(51.03 560.95)">Lorumq</text><text class="cls-8" transform="translate(119.32 560.95)">ue q</text><text class="cls-8" transform="translate(154.35 560.95)">uam q</text><text class="cls-8" transform="translate(207.08 560.95)">uatia dolupta tiorestibus </text><text class="cls-8" transform="translate(51.03 582.95)">aut doluptas eium ini aut q</text><text class="cls-8" transform="translate(278.72 582.95)">uia v</text><text class="cls-8" transform="translate(319.73 582.95)">el molupta </text><text class="cls-8" transform="translate(51.03 604.95)">q</text><text class="cls-8" transform="translate(60.65 604.95)">uatios simolupta.</text><text class="cls-8" transform="translate(51.03 648.94)">P</text><text class="cls-8" transform="translate(62.13 648.94)">oruntem con perumendam, te </text><text class="cls-8" transform="translate(51.03 670.95)">laboremq</text><text class="cls-8" transform="translate(131.43 670.95)">uod millorp oratese recatiberit </text><text class="cls-8" transform="translate(51.03 692.95)">optatur</text><text class="cls-8" transform="translate(113.07 692.95)">, iur mo iumq</text><text class="cls-8" transform="translate(227.6 692.95)">ui.</text></svg>