<svg id="Layer_1" data-name="Layer 1" xmlns="http://www.w3.org/2000/svg" xmlns:xlink="http://www.w3.org/1999/xlink" viewBox="0 0 1150.87 737.01"><defs><style>.cls-1,.cls-6{fill:none;}.cls-2{clip-path:url(#clip-path);}.cls-3{fill:#fde7da;}.cls-4{fill:#fff;}.cls-5{fill:#dadada;}.cls-6{stroke:#1d1d1b;stroke-width:0.5px;}.cls-7{fill:#009640;}.cls-8,.cls-9{font-size:18px;fill:#e74310;font-family:AmericanTypewriter-Light, American Typewriter;font-weight:300;}.cls-9{letter-spacing:-0.07em;}</style><clipPath id="clip-path" transform="translate(270.12 -28.33)"><rect class="cls-1" x="-270" y="34" width="1150.75" height="725.67"/></clipPath></defs><g class="cls-2"><polygon class="cls-3" points="0 5.67 0 731.34 575.43 731.34 575.43 5.67 0 5.67 0 5.67"/></g><polygon class="cls-3" points="575.43 5.67 575.43 731.34 1150.87 731.34 1150.87 5.67 575.43 5.67 575.43 5.67"/><path class="cls-4" d="M-126.82,404.93a66.76,66.76,0,0,0,66.76-66.76,66.76,66.76,0,0,0-66.76-66.77,66.76,66.76,0,0,0-66.76,66.77,66.76,66.76,0,0,0,66.76,66.76Z" transform="translate(270.12 -28.33)"/><polygon class="cls-5" points="404.41 405.35 404.41 42.52 126.61 42.52 126.61 405.35 404.41 405.35 404.41 405.35"/><g class="cls-2"><path class="cls-6" d="M305.31,28.33v737" transform="translate(270.12 -28.33)"/></g><path class="cls-4" d="M763.26,204.38a66.77,66.77,0,1,0-66.77-66.77,66.76,66.76,0,0,0,66.77,66.77Z" transform="translate(270.12 -28.33)"/><polygon class="cls-5" points="1054.49 101.34 691.65 101.34 691.65 379.13 1054.49 379.13 1054.49 101.34 1054.49 101.34"/><polygon class="cls-7" points="736.06 447.17 736.06 665.67 1099.84 665.67 1099.84 447.17 736.06 447.17 736.06 447.17"/><text class="cls-8" transform="translate(736.07 459.55)">x 727</text><text class="cls-8" transform="translate(782.9 459.55)"><tspan xml:space="preserve">.559 px  y 432.992 px</tspan></text><text class="cls-8" transform="translate(736.07 481.54)"><tspan xml:space="preserve">w 363.78 px  h </tspan></text><text class="cls-9" transform="translate(865.37 481.54)">21</text><text class="cls-8" transform="translate(884.67 481.54)">8.97</text><text class="cls-8" transform="translate(921.14 481.54)">6 px </text><text class="cls-8" transform="translate(736.07 503.55)">Lorumq</text><text class="cls-8" transform="translate(804.35 503.55)">ue q</text><text class="cls-8" transform="translate(839.39 503.55)">uam q</text><text class="cls-8" transform="translate(892.12 503.55)">uatia dolupta tiorestibus </text><text class="cls-8" transform="translate(736.07 525.55)">aut doluptas eium ini aut q</text><text class="cls-8" transform="translate(963.76 525.55)">uia v</text><text class="cls-8" transform="translate(1004.76 525.55)">el molupta </text><text class="cls-8" transform="translate(736.07 547.55)">q</text><text class="cls-8" transform="translate(745.69 547.55)">uatios simolupta.</text><text class="cls-8" transform="translate(736.07 591.54)">P</text><text class="cls-8" transform="translate(747.17 591.54)">oruntem con perumendam, te </text><text class="cls-8" transform="translate(736.07 613.55)">laboremq</text><text class="cls-8" transform="translate(816.47 613.55)">uod millorp oratese recatiberit </text><text class="cls-8" transform="translate(736.07 635.55)">optatur</text><text class="cls-8" transform="translate(798.11 635.55)">, iur mo iumq</text><text class="cls-8" transform="translate(912.64 635.55)">ui.</text><polygon class="cls-7" points="51.02 447.17 51.02 666.14 414.8 666.14 414.8 447.17 51.02 447.17 51.02 447.17"/><text class="cls-8" transform="translate(51.03 459.55)"><tspan xml:space="preserve">x 42.52 px  y 432.992 px</tspan></text><text class="cls-8" transform="translate(51.03 481.54)"><tspan xml:space="preserve">w 363.78 px  h </tspan></text><text class="cls-9" transform="translate(180.33 481.54)">21</text><text class="cls-8" transform="translate(199.63 481.54)">8.97</text><text class="cls-8" transform="translate(236.1 481.54)">6 px </text><text class="cls-8" transform="translate(51.03 503.55)">Lorumq</text><text class="cls-8" transform="translate(119.32 503.55)">ue q</text><text class="cls-8" transform="translate(154.35 503.55)">uam q</text><text class="cls-8" transform="translate(207.08 503.55)">uatia dolupta tiorestibus </text><text class="cls-8" transform="translate(51.03 525.55)">aut doluptas eium ini aut q</text><text class="cls-8" transform="translate(278.72 525.55)">uia v</text><text class="cls-8" transform="translate(319.73 525.55)">el molupta </text><text class="cls-8" transform="translate(51.03 547.55)">q</text><text class="cls-8" transform="translate(60.65 547.55)">uatios simolupta.</text><text class="cls-8" transform="translate(51.03 591.54)">P</text><text class="cls-8" transform="translate(62.13 591.54)">oruntem con perumendam, te </text><text class="cls-8" transform="translate(51.03 613.55)">laboremq</text><text class="cls-8" transform="translate(131.43 613.55)">uod millorp oratese recatiberit </text><text class="cls-8" transform="translate(51.03 635.55)">optatur</text><text class="cls-8" transform="translate(113.07 635.55)">, iur mo iumq</text><text class="cls-8" transform="translate(227.6 635.55)">ui.</text></svg>