<svg id="Layer_1" data-name="Layer 1" xmlns="http://www.w3.org/2000/svg" xmlns:xlink="http://www.w3.org/1999/xlink" viewBox="0 0 1142.36 737.01"><defs><style>.cls-1,.cls-9{fill:none;}.cls-2{fill:#fff;}.cls-3{clip-path:url(#clip-path);}.cls-4{fill:#fff59b;}.cls-5{fill:#fde7da;}.cls-6{fill:#009640;}.cls-7,.cls-8{font-size:18px;fill:#e74310;font-family:AmericanTypewriter-Light, American Typewriter;font-weight:300;}.cls-8{letter-spacing:-0.07em;}.cls-9{stroke:#1d1d1b;stroke-width:0.5px;}.cls-10{fill:#ededed;}</style><clipPath id="clip-path" transform="translate(270.12 -28.33)"><rect class="cls-1" x="-270" y="34" width="1150.75" height="725.67"/></clipPath></defs><polygon class="cls-2" points="575.43 14.17 575.43 722.83 1142.36 722.83 1142.36 14.17 575.43 14.17 575.43 14.17"/><g class="cls-3"><polygon class="cls-4" points="829.84 114.09 829.84 530.08 929.05 530.08 929.05 114.09 829.84 114.09 829.84 114.09"/><polygon class="cls-5" points="0 5.67 0 731.34 575.43 731.34 575.43 5.67 0 5.67 0 5.67"/></g><polygon class="cls-6" points="51.02 324.57 51.02 585.87 414.8 585.87 414.8 324.57 51.02 324.57 51.02 324.57"/><text class="cls-7" transform="translate(51.03 336.94)"><tspan xml:space="preserve">x 42.52 px  y </tspan></text><text class="cls-8" transform="translate(164.92 336.94)">31</text><text class="cls-7" transform="translate(184.07 336.94)">0.394 px</text><text class="cls-7" transform="translate(51.03 358.95)"><tspan xml:space="preserve">w 363.78 px   middle h 267</tspan></text><text class="cls-7" transform="translate(279.15 358.95)">.1</text><text class="cls-7" transform="translate(292.25 358.95)">65 px</text><text class="cls-7" transform="translate(51.03 380.95)">Lorumq</text><text class="cls-7" transform="translate(119.32 380.95)">ue q</text><text class="cls-7" transform="translate(154.35 380.95)">uam q</text><text class="cls-7" transform="translate(207.08 380.95)">uatia dolupta tiorestibus </text><text class="cls-7" transform="translate(51.03 402.95)">aut doluptas eium ini aut q</text><text class="cls-7" transform="translate(278.72 402.95)">uia v</text><text class="cls-7" transform="translate(319.73 402.95)">el molupta </text><text class="cls-7" transform="translate(51.03 424.96)">q</text><text class="cls-7" transform="translate(60.65 424.96)">uatios simolupta.</text><text class="cls-7" transform="translate(51.03 468.95)">P</text><text class="cls-7" transform="translate(62.13 468.95)">oruntem con perumendam, te </text><text class="cls-7" transform="translate(51.03 490.95)">laboremq</text><text class="cls-7" transform="translate(131.43 490.95)">uod millorp oratese recatiberit </text><text class="cls-7" transform="translate(51.03 512.95)">optatur</text><text class="cls-7" transform="translate(113.07 512.95)">, iur mo iumq</text><text class="cls-7" transform="translate(227.6 512.95)">ui</text><g class="cls-3"><path class="cls-9" d="M305.31,28.33v737" transform="translate(270.12 -28.33)"/></g><polygon class="cls-10" points="698.03 183.19 698.03 460.98 1060.87 460.98 1060.87 183.19 698.03 183.19 698.03 183.19"/></svg>