<svg id="Layer_1" data-name="Layer 1" xmlns="http://www.w3.org/2000/svg" xmlns:xlink="http://www.w3.org/1999/xlink" viewBox="0 0 1133.86 737.01"><defs><style>.cls-1,.cls-8{fill:none;}.cls-2{fill:#fff;}.cls-3{fill:#f8c9df;}.cls-4{fill:#c0bee0;}.cls-5{fill:#ededed;}.cls-6{fill:#fff59b;}.cls-7{clip-path:url(#clip-path);}.cls-8{stroke:#1d1d1b;stroke-width:0.5px;}.cls-9{fill:#009640;}.cls-10{font-size:18px;fill:#e74310;font-family:AmericanTypewriter-Light, American Typewriter;font-weight:300;}</style><clipPath id="clip-path" transform="translate(261.62 -28.33)"><rect class="cls-1" x="-270" y="34" width="1150.75" height="725.67"/></clipPath></defs><polygon class="cls-2" points="0 14.17 0 722.83 566.93 722.83 566.93 14.17 0 14.17 0 14.17"/><polygon class="cls-2" points="566.93 14.17 566.93 722.83 1133.86 722.83 1133.86 14.17 566.93 14.17 566.93 14.17"/><polygon class="cls-3" points="809.29 56.77 809.29 161.5 914.03 161.5 914.03 56.77 809.29 56.77 809.29 56.77"/><path class="cls-4" d="M614.44,694.47a66.77,66.77,0,1,0-66.77-66.76,66.76,66.76,0,0,0,66.77,66.76Z" transform="translate(261.62 -28.33)"/><polygon class="cls-5" points="878.26 300.47 878.26 595.27 1090.87 595.27 1090.87 300.47 878.26 300.47 878.26 300.47"/><polygon class="cls-5" points="651.97 109.13 651.97 403.94 864.57 403.94 864.57 109.13 651.97 109.13 651.97 109.13"/><polygon class="cls-6" points="485.92 453.54 411.86 379.48 337.8 453.54 411.86 527.6 485.92 453.54 485.92 453.54"/><polygon class="cls-5" points="118.11 453.54 118.11 666.14 412.91 666.14 412.91 453.54 118.11 453.54 118.11 453.54"/><g class="cls-7"><path class="cls-8" d="M305.31,28.33v737" transform="translate(261.62 -28.33)"/></g><polygon class="cls-9" points="42.52 110.55 42.52 335.9 406.3 335.9 406.3 110.55 42.52 110.55 42.52 110.55"/><text class="cls-10" transform="translate(42.52 122.93)"><tspan xml:space="preserve">x 42.52 px  y 96.378 px</tspan></text><text class="cls-10" transform="translate(42.52 144.93)"><tspan xml:space="preserve">w 363.78 px   middle h 253.622 px</tspan></text><text class="cls-10" transform="translate(42.52 188.94)">Lorumq</text><text class="cls-10" transform="translate(110.81 188.94)">ue q</text><text class="cls-10" transform="translate(145.85 188.94)">uam q</text><text class="cls-10" transform="translate(198.58 188.94)">uatia dolupta tiorestibus </text><text class="cls-10" transform="translate(42.52 210.93)">aut doluptas eium ini aut q</text><text class="cls-10" transform="translate(270.22 210.93)">uia v</text><text class="cls-10" transform="translate(311.23 210.93)">el molupta </text><text class="cls-10" transform="translate(42.52 232.93)">q</text><text class="cls-10" transform="translate(52.15 232.93)">uatios simolupta.</text><text class="cls-10" transform="translate(42.52 276.93)">P</text><text class="cls-10" transform="translate(53.62 276.93)">oruntem con perumendam, te </text><text class="cls-10" transform="translate(42.52 298.94)">laboremq</text><text class="cls-10" transform="translate(122.93 298.94)">uod millorp oratese recatiberit </text><text class="cls-10" transform="translate(42.52 320.93)">optatur</text><text class="cls-10" transform="translate(104.57 320.93)">, iur mo iumq</text><text class="cls-10" transform="translate(219.1 320.93)">ui.</text></svg>