<svg id="Layer_1" data-name="Layer 1" xmlns="http://www.w3.org/2000/svg" viewBox="0 0 583.94 725.67"><defs><style>.cls-1{fill:#fde7da;}.cls-2,.cls-3,.cls-4,.cls-5{font-size:8px;font-family:Agenda-Light, Agenda;font-weight:300;}.cls-2,.cls-3,.cls-4,.cls-5,.cls-6{fill:#1d1d1b;}.cls-3{letter-spacing:-0.02em;}.cls-4{letter-spacing:-0.01em;}.cls-5{letter-spacing:-0.02em;}.cls-7{fill:#fcbf00;}.cls-8{fill:#e74310;}</style></defs><polygon class="cls-1" points="0 0 0 725.67 583.94 725.67 583.94 0 0 0 0 0"/><text class="cls-2" transform="translate(240.95 624.38)">A </text><text class="cls-3" transform="translate(247.66 624.38)">fa</text><text class="cls-2" transform="translate(253.64 624.38)">mi</text><text class="cls-4" transform="translate(261.41 624.38)">ly</text><text class="cls-2" transform="translate(266.72 624.38)"><tspan xml:space="preserve"> photobook </tspan></text><text class="cls-5" transform="translate(306.78 624.38)">by</text><path class="cls-6" d="M222.87,646.92h-5v-4.11L215.6,644v2.95h-2.77v1.84h2.77v8.35a3.74,3.74,0,0,0,4.08,3.87,3.66,3.66,0,0,0,1.54-.28l.21-1.84a3.32,3.32,0,0,1-1.35.25,2,2,0,0,1-2.24-2.21v-8.14h4.61l.42-1.84Zm14.8,13.91v-9.27c0-3.07-2.24-5-5.31-5-2.3,0-3.62.89-4.21,2h0V639h-2.36v21.86h2.36v-9.06c0-1.69,1.32-3.13,3.66-3.13s3.53,1.44,3.53,3.13v9.06Zm6.82,0V646.92h-2.4v13.91Zm12.89-3.78c0-2.3-1.56-3.56-4.23-4.51-1.45-.52-2.21-1-2.21-2.12s.85-1.78,2.15-1.78a5,5,0,0,1,3,.92l.49-1.93a7.4,7.4,0,0,0-3.46-.89c-2.55,0-4.4,1.53-4.4,3.77s1.48,3.38,4.09,4.3c1.44.52,2.3,1.2,2.3,2.33s-1.07,1.94-2.52,1.94a6.52,6.52,0,0,1-4.17-1.6l.3,2.46a6.61,6.61,0,0,0,3.84,1.07c3.07,0,4.82-1.69,4.82-4Zm20.7-.43c0-2.33-1.29-3.9-4.43-4.73-.85-.21-1.22-.49-1.22-1s.49-.89,1.22-.89a6.38,6.38,0,0,1,2.89.77l.77-3.32a10.29,10.29,0,0,0-4.11-.83c-3,0-5.22,1.75-5.22,4.48,0,2.43,1.59,3.78,4.26,4.55.8.24,1.26.49,1.26,1.07s-.52,1-1.35,1a8,8,0,0,1-4.36-1.51l.4,4a9.27,9.27,0,0,0,4.42,1c3.75,0,5.47-2.14,5.47-4.51Zm12.95-9.7h-4.48v-4.61l-4.48,1.63v3h-2.34v3.68h2.34v6c0,2.76,1.87,4.42,5,4.42a5,5,0,0,0,2.09-.37l.4-3.4a2.67,2.67,0,0,1-1.17.18c-1.19,0-1.84-.49-1.84-1.69V650.6h3.62l.86-3.68Zm29-.06a4.32,4.32,0,0,0-1.29-.19,4,4,0,0,0-4,3.35h0v-3.1h-4.45v13.91h4.52v-6.48c0-2.21,1.32-3,2.76-3a3.43,3.43,0,0,1,1.35.34l1.11-4.85Zm16.33.06H332.2l-2,5.4c-.31.8-.62,1.78-.89,2.74h-.06a20.74,20.74,0,0,0-.83-2.74l-2-5.4H322l5,13a8.68,8.68,0,0,1-5.1,5.43l2.76,2.76c2.61-1,4.82-3,6.94-8.62l4.73-12.53Z"/><path class="cls-7" d="M244.83,642.65a1.52,1.52,0,0,0-3,0,1.52,1.52,0,1,0,3,0Zm62.66,11.21a7.59,7.59,0,1,0-7.58,7.4,7.3,7.3,0,0,0,7.58-7.4Z"/><path class="cls-8" d="M338.61,344.13c13.49-21.78,10.75-42.46-7-54.81s-33-1.44-40,3.23h0c-7-4.69-23.19-16.06-40.33-3.06s-18.41,38.23-7.18,54.8S291.35,391,291.35,391s33.94-25.37,47.26-46.87Z"/></svg>