<svg id="Layer_1" data-name="Layer 1" xmlns="http://www.w3.org/2000/svg" xmlns:xlink="http://www.w3.org/1999/xlink" viewBox="0 0 1133.86 737.01"><defs><style>.cls-1,.cls-5{fill:none;}.cls-2{fill:#fff;}.cls-3{fill:#fff59b;}.cls-4{clip-path:url(#clip-path);}.cls-5{stroke:#1d1d1b;stroke-width:0.5px;}.cls-6{fill:#ededed;}.cls-7{fill:#f8c9df;}.cls-8{fill:#009640;}.cls-10,.cls-9{font-size:18px;fill:#e74310;font-family:AmericanTypewriter-Light, American Typewriter;font-weight:300;}.cls-10{letter-spacing:-0.07em;}</style><clipPath id="clip-path" transform="translate(261.62 -28.33)"><rect class="cls-1" x="-270" y="34" width="1150.75" height="725.67"/></clipPath></defs><polygon class="cls-2" points="0 14.17 0 722.83 566.93 722.83 566.93 14.17 0 14.17 0 14.17"/><polygon class="cls-2" points="566.93 14.17 566.93 722.83 1133.86 722.83 1133.86 14.17 566.93 14.17 566.93 14.17"/><polygon class="cls-3" points="65.74 63.78 65.74 168.51 170.48 168.51 170.48 63.78 65.74 63.78 65.74 63.78"/><g class="cls-4"><path class="cls-5" d="M305.31,28.33v737" transform="translate(261.62 -28.33)"/></g><polygon class="cls-6" points="443.17 110.55 279.69 110.55 279.69 337.25 443.17 337.25 443.17 110.55 443.17 110.55"/><polygon class="cls-6" points="267.42 111.36 103.94 111.36 103.94 338.06 267.42 338.06 267.42 111.36 267.42 111.36"/><polygon class="cls-7" points="839.41 250.51 765.35 324.57 839.41 398.63 913.47 324.57 839.41 250.51 839.41 250.51"/><polygon class="cls-6" points="864.64 42.52 864.64 206 1091.34 206 1091.34 42.52 864.64 42.52 864.64 42.52"/><polygon class="cls-6" points="851.26 111.36 687.78 111.36 687.78 338.06 851.26 338.06 851.26 111.36 851.26 111.36"/><polygon class="cls-8" points="727.56 447.17 727.56 665.67 1091.34 665.67 1091.34 447.17 727.56 447.17 727.56 447.17"/><text class="cls-9" transform="translate(727.56 459.55)">x 727</text><text class="cls-9" transform="translate(774.4 459.55)"><tspan xml:space="preserve">.559 px  y 432.992 px</tspan></text><text class="cls-9" transform="translate(727.56 481.54)"><tspan xml:space="preserve">w 363.78 px  h </tspan></text><text class="cls-10" transform="translate(856.87 481.54)">21</text><text class="cls-9" transform="translate(876.16 481.54)">8.97</text><text class="cls-9" transform="translate(912.63 481.54)">6 px </text><text class="cls-9" transform="translate(727.56 503.55)">Lorumq</text><text class="cls-9" transform="translate(795.85 503.55)">ue q</text><text class="cls-9" transform="translate(830.89 503.55)">uam q</text><text class="cls-9" transform="translate(883.62 503.55)">uatia dolupta tiorestibus </text><text class="cls-9" transform="translate(727.56 525.55)">aut doluptas eium ini aut q</text><text class="cls-9" transform="translate(955.26 525.55)">uia v</text><text class="cls-9" transform="translate(996.26 525.55)">el molupta </text><text class="cls-9" transform="translate(727.56 547.55)">q</text><text class="cls-9" transform="translate(737.19 547.55)">uatios simolupta.</text><text class="cls-9" transform="translate(727.56 591.54)">P</text><text class="cls-9" transform="translate(738.66 591.54)">oruntem con perumendam, te </text><text class="cls-9" transform="translate(727.56 613.55)">laboremq</text><text class="cls-9" transform="translate(807.97 613.55)">uod millorp oratese recatiberit </text><text class="cls-9" transform="translate(727.56 635.55)">optatur</text><text class="cls-9" transform="translate(789.61 635.55)">, iur mo iumq</text><text class="cls-9" transform="translate(904.14 635.55)">ui.</text><polygon class="cls-8" points="42.52 447.17 42.52 666.14 406.3 666.14 406.3 447.17 42.52 447.17 42.52 447.17"/><text class="cls-9" transform="translate(42.52 459.55)"><tspan xml:space="preserve">x 42.52 px  y 432.992 px</tspan></text><text class="cls-9" transform="translate(42.52 481.54)"><tspan xml:space="preserve">w 363.78 px  h </tspan></text><text class="cls-10" transform="translate(171.83 481.54)">21</text><text class="cls-9" transform="translate(191.12 481.54)">8.97</text><text class="cls-9" transform="translate(227.59 481.54)">6 px </text><text class="cls-9" transform="translate(42.52 503.55)">Lorumq</text><text class="cls-9" transform="translate(110.81 503.55)">ue q</text><text class="cls-9" transform="translate(145.85 503.55)">uam q</text><text class="cls-9" transform="translate(198.58 503.55)">uatia dolupta tiorestibus </text><text class="cls-9" transform="translate(42.52 525.55)">aut doluptas eium ini aut q</text><text class="cls-9" transform="translate(270.22 525.55)">uia v</text><text class="cls-9" transform="translate(311.23 525.55)">el molupta </text><text class="cls-9" transform="translate(42.52 547.55)">q</text><text class="cls-9" transform="translate(52.15 547.55)">uatios simolupta.</text><text class="cls-9" transform="translate(42.52 591.54)">P</text><text class="cls-9" transform="translate(53.62 591.54)">oruntem con perumendam, te </text><text class="cls-9" transform="translate(42.52 613.55)">laboremq</text><text class="cls-9" transform="translate(122.93 613.55)">uod millorp oratese recatiberit </text><text class="cls-9" transform="translate(42.52 635.55)">optatur</text><text class="cls-9" transform="translate(104.57 635.55)">, iur mo iumq</text><text class="cls-9" transform="translate(219.1 635.55)">ui.</text></svg>