<svg id="Layer_1" data-name="Layer 1" xmlns="http://www.w3.org/2000/svg" xmlns:xlink="http://www.w3.org/1999/xlink" viewBox="0 0 1150.87 737.01"><defs><style>.cls-1,.cls-6{fill:none;}.cls-2{clip-path:url(#clip-path);}.cls-3{fill:#fde7da;}.cls-4{fill:#dadada;}.cls-5{fill:#fff;}.cls-6{stroke:#1d1d1b;stroke-width:0.5px;}.cls-7{fill:#009640;}.cls-8,.cls-9{font-size:18px;fill:#e74310;font-family:AmericanTypewriter-Light, American Typewriter;font-weight:300;}.cls-9{letter-spacing:0.08em;}</style><clipPath id="clip-path" transform="translate(270.12 -28.33)"><rect class="cls-1" x="-270" y="34" width="1150.75" height="725.67"/></clipPath></defs><g class="cls-2"><polygon class="cls-3" points="0 5.67 0 731.34 575.43 731.34 575.43 5.67 0 5.67 0 5.67"/></g><polygon class="cls-3" points="575.43 5.67 575.43 731.34 1150.87 731.34 1150.87 5.67 575.43 5.67 575.43 5.67"/><polygon class="cls-4" points="409.13 571.89 409.13 209.06 131.34 209.06 131.34 571.89 409.13 571.89 409.13 571.89"/><path class="cls-5" d="M50.46,246.7c11.37-18.35,9.06-35.78-5.91-46.19s-27.81-1.21-33.69,2.72h0c-5.88-3.95-19.54-13.53-34-2.57s-15.52,32.21-6.06,46.17S10.63,286.2,10.63,286.2s28.6-21.38,39.83-39.5Z" transform="translate(270.12 -28.33)"/><g class="cls-2"><path class="cls-6" d="M305.31,28.33v737" transform="translate(270.12 -28.33)"/></g><polygon class="cls-7" points="736.06 206.93 736.06 569.76 1099.84 569.76 1099.84 206.93 736.06 206.93 736.06 206.93"/><text class="cls-8" transform="translate(736.07 219.31)">x 727</text><text class="cls-8" transform="translate(782.9 219.31)"><tspan xml:space="preserve">.559 px   y 1</tspan></text><text class="cls-8" transform="translate(883.98 219.31)">92.756 px</text><text class="cls-8" transform="translate(736.07 241.31)"><tspan xml:space="preserve">w 363.78 px   h 362.835 px</tspan></text><text class="cls-8" transform="translate(736.07 285.32)">Donor pag</text><text class="cls-8" transform="translate(824.62 285.32)">e v</text><text class="cls-8" transform="translate(848.28 285.32)">elia porum ad mod q</text><text class="cls-8" transform="translate(1022.01 285.32)">uasint </text><text class="cls-8" transform="translate(736.07 307.32)">ulparuptas dem et eicabor ruptatu ritibus </text><text class="cls-8" transform="translate(736.07 329.31)">q</text><text class="cls-8" transform="translate(745.69 329.31)">uae peri autem diorum fugita q</text><text class="cls-8" transform="translate(1011.43 329.31)">ui ut q</text><text class="cls-8" transform="translate(1065.1 329.31)">ui </text><text class="cls-8" transform="translate(736.07 351.31)">utesti num raerunt ea doluptat v</text><text class="cls-8" transform="translate(1014.6 351.31)">enesectet </text><text class="cls-8" transform="translate(736.07 373.32)">q</text><text class="cls-8" transform="translate(745.69 373.32)">uassum. </text><text class="cls-8" transform="translate(736.07 417.32)">V</text><text class="cls-8" transform="translate(746.3 417.32)">oluptis re nia v</text><text class="cls-8" transform="translate(873.35 417.32)">oluptaturis dolore </text><text class="cls-8" transform="translate(736.07 439.31)">dus etum ex e</text><text class="cls-8" transform="translate(854.95 439.31)">v</text><text class="cls-8" transform="translate(864.6 439.31)">endentur sunt, tet </text><text class="cls-8" transform="translate(736.07 461.31)">maximincimus unt omnis sintiatium </text><text class="cls-8" transform="translate(736.07 483.32)">fugiti simint a eost aut oﬃ</text><text class="cls-9" transform="translate(948.71 483.32)"><tspan xml:space="preserve">  c</tspan></text><text class="cls-8" transform="translate(969.89 483.32)">tem reperna </text><text class="cls-8" transform="translate(736.07 505.32)">tiusdae v</text><text class="cls-8" transform="translate(812.49 505.32)">oluptatem</text></svg>